<?xml version="1.0" encoding="UTF-8"?>
<svg width="20px" height="20px" viewBox="0 0 20 20" version="1.1" xmlns="http://www.w3.org/2000/svg" xmlns:xlink="http://www.w3.org/1999/xlink">
    <!-- Generator: Sketch 53.2 (72643) - https://sketchapp.com -->
    <title>icon_language</title>
    <desc>Created with Sketch.</desc>
    <g id="Page-1" stroke="none" stroke-width="1" fill="none" fill-rule="evenodd">
        <g id="LinuxHosting_New_Desktop" transform="translate(-282.000000, -30.000000)" fill="#282828" fill-rule="nonzero">
            <g id="icon_language" transform="translate(282.000000, 30.000000)">
                <path d="M17.0726792,2.93035609 C14.2126497,0.0694918887 9.91031016,-0.786560841 6.17269911,0.76154593 C2.43508806,2.3096527 -0.00134254271,5.95688287 5.55011134e-07,10.001806 C5.55011131e-07,15.5236561 4.4771403,20 9.99997207,20 C15.5228038,20 19.9999436,15.5236561 19.9999436,10.001806 C20.0088846,7.3481892 18.9546656,4.80149172 17.0726792,2.93035609 Z M19.0908553,9.55643192 L15.218139,9.55643192 C15.1807132,8.08241608 14.9546324,6.61926122 14.5454137,5.20267291 C15.29105,4.82011366 15.9845759,4.34359026 16.6090442,3.78474721 C18.0961706,5.35254551 18.9760358,7.39875458 19.0908553,9.55643192 Z M10.4454253,10.4653586 L14.3181416,10.4653586 C14.2971267,11.8166826 14.10779,13.1601236 13.7545068,14.4646362 C12.6993985,14.0419667 11.5808513,13.7992483 10.4454253,13.7465841 L10.4454253,10.4653586 Z M15.999955,3.19394484 C15.4796767,3.64807895 14.9093322,4.04145523 14.2999598,4.36646032 C14.151833,3.94906574 13.9756749,3.54215219 13.7726886,3.14849851 C13.4414187,2.45442006 12.999265,1.81893699 12.4636014,1.26702018 C13.7701682,1.6265421 14.9788976,2.27584685 15.999955,3.16667704 L15.999955,3.19394484 Z M10.4454253,1.0397885 C11.6079845,1.45620392 12.5309386,2.35907767 12.9726909,3.5120692 C13.1688623,3.90457218 13.341885,4.30822011 13.4908712,4.72094174 C12.5238627,5.12592404 11.4928338,5.35671038 10.4454253,5.40263679 L10.4454253,1.0397885 Z M13.7635977,5.58442213 C14.1043253,6.8819557 14.2904646,8.21520798 14.3181416,9.55643192 L10.4454253,9.55643192 L10.4454253,6.31156351 C11.584291,6.25581545 12.7058151,6.01004563 13.7635977,5.58442213 Z M9.5545188,9.55643192 L5.68180255,9.55643192 C5.69984191,8.21445618 5.88614364,6.88004005 6.23634643,5.58442213 C7.29175589,6.00610837 8.41013558,6.24879049 9.54542791,6.30247424 L9.54542791,9.55643192 L9.5545188,9.55643192 Z M9.5545188,1.0397885 L9.5545188,5.40263679 C8.51006051,5.3565976 7.4820358,5.12579476 6.51816381,4.72094174 C6.66022348,4.30689951 6.83031328,3.90300803 7.02725327,3.5120692 C7.46900551,2.35907767 8.39195964,1.45620392 9.5545188,1.0397885 L9.5545188,1.0397885 Z M7.54543361,1.23975238 C7.00910801,1.79311855 6.56416425,2.42820121 6.22725555,3.12123071 C6.036347,3.50297993 5.86362022,3.91199696 5.69998432,4.33919252 C5.09345308,4.00954304 4.52360088,3.61650632 3.99998916,3.16667704 C5.02249463,2.26691319 6.23415796,1.60838251 7.54543361,1.23975238 Z M3.36362734,3.78474721 C3.99685881,4.34512903 4.69960049,4.82168648 5.45453047,5.20267291 C5.05710243,6.6205067 4.84623538,8.08409174 4.82725953,9.55643192 L0.909088875,9.55643192 C1.01644841,7.40230382 1.88645578,5.35653909 3.36362734,3.78474721 L3.36362734,3.78474721 Z M0.909088875,10.4471801 L4.790896,10.4471801 C4.82550347,11.9267577 5.0485104,13.3958983 5.45453047,14.8191177 C4.71233263,15.2027662 4.02194762,15.6792304 3.39999087,16.2370434 C1.90558161,14.6659009 1.02212937,12.6124007 0.909088875,10.4471801 L0.909088875,10.4471801 Z M4.01817093,16.8096672 C4.53858773,16.3599359 5.10541722,15.9668821 5.7090752,15.6371517 C5.85638011,16.0475825 6.02945102,16.448307 6.22725555,16.836935 C6.55713192,17.5476577 7.00256215,18.1987917 7.54543361,18.7638597 C6.24116514,18.4006894 5.03553747,17.748275 4.01817093,16.8551135 L4.01817093,16.8096672 Z M9.5545188,18.9183772 C8.39195964,18.5019618 7.46900551,17.599088 7.02725327,16.4460965 C6.8341211,16.0596293 6.6641251,15.6620308 6.51816381,15.2554025 C7.48412744,14.8584882 8.5112727,14.6309576 9.5545188,14.5827967 L9.5545188,18.9183772 Z M6.24543731,14.3737436 C5.89657528,13.0683285 5.70731584,11.7254357 5.68180255,10.374466 L9.5545188,10.374466 L9.5545188,13.7284056 C8.41808166,13.7732333 7.29821674,14.0162377 6.24543731,14.4464577 L6.24543731,14.3737436 Z M10.4545162,18.9183772 L10.4545162,14.6282431 C11.4943299,14.6800875 12.5178699,14.9075004 13.4817803,15.3008488 C13.3387812,15.7072719 13.1718224,16.1048665 12.9817818,16.4915428 C12.5400295,17.6445344 11.6170754,18.5474081 10.4545162,18.9638235 L10.4545162,18.9183772 Z M12.4636014,18.7184133 C12.999927,18.1650471 13.4448708,17.5299645 13.7817795,16.836935 C13.9779663,16.4475492 14.150994,16.0469248 14.2999598,15.6371517 C14.9055563,15.9637341 15.472717,16.3570175 15.9908641,16.8096672 C14.9734976,17.7028287 13.7678699,18.3552431 12.4636014,18.7184133 L12.4636014,18.7184133 Z M16.6363168,16.191597 C16.0004841,15.6471664 15.2978582,15.1859592 14.5454137,14.8191177 C14.9452849,13.3951022 15.1621799,11.9259761 15.1908664,10.4471801 L19.0908553,10.4471801 C18.9852667,12.6088395 18.1116778,14.6618919 16.6272259,16.2370434 L16.6363168,16.191597 Z" id="Shape"></path>
            </g>
        </g>
    </g>
</svg>