<svg width="233" height="30" viewBox="0 0 233 30" fill="none" xmlns="http://www.w3.org/2000/svg">
<path d="M121.669 2.27124L124.41 2.27124L118.968 22.7058H116.267L111.881 9.23821H111.765L107.341 22.7058H104.679L98.9634 2.27124H101.744L106.05 18.3599H106.166L110.59 5.01192H113.057L117.481 18.3599H117.599L121.669 2.27124Z" fill="#565C62"/>
<path d="M124.175 15.6983C124.175 13.5453 124.841 11.7442 126.212 10.3349C127.583 8.92551 129.305 8.21997 131.38 8.21997C133.455 8.21997 135.176 8.92551 136.507 10.3349C137.877 11.7442 138.588 13.5453 138.588 15.6983C138.588 17.8513 137.882 19.6507 136.507 21.0601C135.133 22.4694 133.453 23.1749 131.38 23.1749C129.306 23.1749 127.582 22.4694 126.212 21.0601C124.843 19.6507 124.175 17.8548 124.175 15.6983ZM126.798 15.6983C126.798 17.1857 127.23 18.4373 128.129 19.3387C128.546 19.7836 129.049 20.1383 129.608 20.3808C130.167 20.6233 130.769 20.7484 131.379 20.7484C131.988 20.7484 132.591 20.6233 133.15 20.3808C133.709 20.1383 134.212 19.7836 134.628 19.3387C135.495 18.3991 135.96 17.1857 135.96 15.6983C135.96 14.211 135.528 12.9958 134.628 12.058C134.212 11.6106 133.71 11.2519 133.151 11.0032C132.593 10.7544 131.991 10.6209 131.38 10.6105C130.765 10.5996 130.155 10.7236 129.594 10.9737C129.032 11.2238 128.532 11.5939 128.129 12.058C127.23 13.0374 126.798 14.211 126.798 15.6983Z" fill="#565C62"/>
<path d="M143.082 22.7087H140.459V8.72968H142.964V11.0006H143.082C143.356 10.2569 143.904 9.62937 144.726 9.08159C145.547 8.57367 146.371 8.29804 147.153 8.29804C147.822 8.28079 148.487 8.39871 149.11 8.64474L148.288 11.1895C147.793 11.0392 147.277 10.9729 146.761 10.9936C145.783 10.9936 144.922 11.3837 144.178 12.2071C143.818 12.5812 143.536 13.0229 143.348 13.5067C143.16 13.9906 143.07 14.5069 143.082 15.0258V22.7087Z" fill="#565C62"/>
<path d="M162.655 22.7058H159.485L155.101 16.1289L152.946 18.2421V22.7058H150.323V2.27124H152.946V14.8756L159.015 8.73029H162.381V8.8083L156.94 14.2498L162.655 22.588V22.7058Z" fill="#565C62"/>
<path d="M174.009 18.8302C174.009 20.0437 173.461 21.0612 172.404 21.9228C171.346 22.7445 169.977 23.1761 168.372 23.1761C166.962 23.1761 165.709 22.8294 164.653 22.0788C163.606 21.3804 162.811 20.3653 162.382 19.1821L164.731 18.1645C165.047 18.9362 165.56 19.6112 166.219 20.1217C166.84 20.586 167.596 20.8339 168.372 20.8272C169.113 20.8431 169.844 20.6548 170.485 20.2829C171.034 19.9362 171.352 19.4993 171.352 18.9897C171.352 18.09 170.648 17.4295 169.271 17.0326L166.884 16.4466C164.144 15.7376 162.812 14.4462 162.812 12.4821C162.812 11.1906 163.322 10.1713 164.372 9.42766C165.428 8.64585 166.72 8.25408 168.359 8.25408C169.542 8.24558 170.705 8.5564 171.726 9.15377C172.681 9.68668 173.427 10.5292 173.839 11.5425L171.492 12.5202C171.222 11.9346 170.768 11.4535 170.199 11.1508C169.588 10.8138 168.901 10.6384 168.203 10.6411C167.553 10.6288 166.914 10.8059 166.362 11.1508C165.815 11.4975 165.541 11.8944 165.541 12.4041C165.541 13.1859 166.284 13.7736 167.812 14.1255L169.925 14.6733C172.626 15.3008 173.997 16.7101 173.997 18.8233L174.009 18.8302Z" fill="#565C62"/>
<path d="M183.127 23.1747C182.149 23.1771 181.183 22.9491 180.31 22.509C179.505 22.1173 178.826 21.507 178.351 20.7477H178.235L178.351 22.7049V28.89H175.728V8.72934H178.235V10.6865H178.351C178.848 9.94596 179.521 9.3407 180.31 8.92522C181.183 8.48434 182.148 8.25624 183.127 8.25956C184.968 8.25956 186.533 8.96336 187.825 10.4126C189.156 11.8601 189.782 13.6612 189.782 15.698C189.782 17.7782 189.118 19.5343 187.825 20.9818C186.573 22.431 185.006 23.1747 183.127 23.1747ZM182.737 20.7859C183.34 20.796 183.937 20.6713 184.486 20.4209C185.034 20.1704 185.52 19.8006 185.907 19.3384C186.768 18.3988 187.199 17.1854 187.199 15.698C187.199 14.2488 186.768 13.0354 185.907 12.0577C185.041 11.1181 183.988 10.6102 182.737 10.6102C182.127 10.5956 181.522 10.718 180.967 10.9686C180.411 11.2191 179.919 11.5913 179.526 12.0577C178.705 12.9972 178.273 14.2107 178.273 15.698C178.273 17.1854 178.705 18.3988 179.526 19.3384C179.919 19.8048 180.411 20.177 180.967 20.4275C181.522 20.678 182.127 20.8005 182.737 20.7859Z" fill="#565C62"/>
<path d="M197.026 8.25952C198.983 8.25952 200.51 8.76744 201.646 9.81968C202.781 10.8719 203.329 12.2865 203.329 14.0876V22.7083H200.784V20.7477H200.666C199.571 22.3529 198.123 23.1348 196.322 23.1348C194.906 23.1676 193.527 22.6804 192.446 21.7653C191.943 21.3459 191.542 20.8183 191.271 20.2218C191.001 19.6253 190.87 18.9754 190.886 18.3208C190.886 16.8716 191.434 15.7361 192.529 14.8746C193.625 14.013 195.074 13.5831 196.913 13.5831C198.474 13.5831 199.772 13.857 200.79 14.4499V13.857C200.791 13.409 200.694 12.9661 200.505 12.56C200.315 12.1539 200.038 11.7947 199.694 11.5081C198.998 10.8772 198.083 10.5421 197.144 10.5738C195.695 10.5738 194.521 11.2013 193.66 12.4147L191.351 10.9655C192.642 9.16441 194.521 8.26472 197.026 8.26472V8.25952ZM193.622 18.4369C193.616 18.7728 193.692 19.105 193.843 19.405C193.994 19.7051 194.215 19.9642 194.488 20.1601C195.063 20.6274 195.784 20.8766 196.525 20.8639C197.621 20.8639 198.605 20.4738 199.5 19.6504C199.906 19.2852 200.231 18.8385 200.454 18.3394C200.676 17.8404 200.791 17.3001 200.791 16.7537C199.963 16.088 198.834 15.7743 197.34 15.7743C196.391 15.746 195.457 16.0204 194.674 16.5578C193.972 17.0282 193.622 17.6546 193.622 18.4369Z" fill="#565C62"/>
<path d="M212.214 23.1752C210.133 23.1752 208.411 22.4702 207.046 21.0603C205.677 19.6128 205.011 17.8516 205.011 15.6986C205.011 13.5456 205.677 11.7444 207.046 10.3351C208.416 8.92575 210.139 8.22022 212.214 8.22022C213.544 8.19242 214.852 8.56048 215.972 9.27766C217.059 9.99633 217.894 11.0363 218.361 12.2524L215.972 13.2699C215.228 11.5087 213.937 10.6471 212.058 10.6471C210.844 10.6471 209.827 11.1169 208.925 12.0963C208.058 13.0758 207.634 14.2494 207.634 15.6986C207.634 17.1478 208.064 18.3214 208.925 19.2991C209.307 19.7579 209.786 20.126 210.328 20.3766C210.87 20.6273 211.461 20.7542 212.058 20.7483C213.975 20.7483 215.351 19.8815 216.128 18.1255L218.477 19.1431C217.988 20.3576 217.142 21.3949 216.05 22.1177C214.899 22.8311 213.567 23.1982 212.214 23.1752Z" fill="#565C62"/>
<path d="M226.345 23.1746C224.265 23.1746 222.589 22.4691 221.257 21.0597C219.926 19.6504 219.26 17.851 219.26 15.698C219.26 13.545 219.926 11.782 221.217 10.3727C222.509 8.96333 224.154 8.25952 226.189 8.25952C228.269 8.25952 229.907 8.92519 231.161 10.2565C232.374 11.5861 233 13.4652 233 15.8922L232.962 16.1678H221.961C222.001 17.5373 222.471 18.6328 223.332 19.4944C224.168 20.3107 225.295 20.7616 226.463 20.7477C228.146 20.7477 229.438 19.9243 230.417 18.2411L232.766 19.3765C232.17 20.5296 231.261 21.491 230.143 22.1501C228.995 22.8328 227.681 23.185 226.345 23.1677V23.1746ZM222.157 14.013H230.181C230.12 13.0825 229.699 12.2123 229.008 11.5861C228.304 10.9603 227.325 10.6466 226.149 10.6466C225.221 10.6331 224.319 10.9529 223.606 11.548C222.862 12.1854 222.352 13.0529 222.157 14.013Z" fill="#565C62"/>
<path d="M11.7881 13.7398V10.5744H22.3971C22.5097 11.2205 22.5625 11.8757 22.5549 12.5315C22.5549 14.9203 21.8892 17.8569 19.8142 19.9301C17.7791 22.045 15.1944 23.1805 11.7499 23.1805C5.36368 23.1753 0.000202204 17.9678 0.000202204 11.5868C-0.037935 5.20052 5.3238 0 11.7048 0C15.2291 0 17.734 1.36947 19.6512 3.21046L17.4202 5.44148C16.0508 4.18816 14.2115 3.17059 11.6996 3.17059C7.04691 3.17059 3.40655 6.93403 3.40655 11.5868C3.40655 16.2395 7.04691 20.0047 11.7048 20.0047C14.7194 20.0047 16.4425 18.7912 17.5381 17.6939C18.4378 16.7942 19.0255 15.5028 19.2612 13.7398H11.7881Z" fill="#4285F4"/>
<path d="M38.679 15.6983C38.679 20.0044 35.3108 23.1749 31.2006 23.1749C27.0905 23.1749 23.724 20.0044 23.724 15.6983C23.724 11.3923 27.0905 8.21997 31.2041 8.21997C35.3177 8.21997 38.6824 11.3906 38.6824 15.6983H38.679ZM35.3853 15.6983C35.3853 12.9958 33.4264 11.1912 31.1573 11.1912C28.9245 11.1912 26.9674 13.0305 26.9674 15.6983C26.9674 18.3662 28.9245 20.2054 31.1954 20.2054C33.4663 20.2054 35.3905 18.3593 35.3905 15.6983H35.3853Z" fill="#EA4335"/>
<path d="M55.0016 15.6983C55.0016 20.0044 51.6352 23.1749 47.525 23.1749C43.4149 23.1749 40.0449 20.0044 40.0449 15.6983C40.0449 11.3923 43.4114 8.21997 47.5215 8.21997C51.6317 8.21997 54.9982 11.3906 54.9982 15.6983H55.0016ZM51.708 15.6983C51.708 12.9958 49.7508 11.1912 47.4817 11.1912C45.2125 11.1912 43.2536 13.0305 43.2536 15.6983C43.2536 18.3662 45.2108 20.2054 47.4817 20.2054C49.7959 20.2384 51.7132 18.3593 51.7132 15.6983H51.708Z" fill="#FBBC04"/>
<path d="M70.6612 8.68975V22.0776C70.6612 27.5989 67.4126 29.8299 63.5763 29.8299C59.9741 29.8299 57.783 27.403 56.9595 25.406L59.8181 24.2307C60.3277 25.4441 61.5793 26.8933 63.5763 26.8933C66.0431 26.8933 67.5634 25.3661 67.5634 22.5093V21.4518H67.4473C66.7019 22.3533 65.2942 23.1351 63.5313 23.1351C59.8129 23.1351 56.3684 19.8865 56.3684 15.6983C56.3684 11.4703 59.773 8.21997 63.5313 8.21997C65.2942 8.21997 66.7417 9.00352 67.4473 9.90321H67.5634V8.68975H70.6612ZM67.7645 15.7365C67.7645 13.1137 66.0032 11.1964 63.7774 11.1964C61.5065 11.1964 59.6274 13.1137 59.6274 15.7365C59.6274 18.3211 61.5065 20.2436 63.7774 20.2436C66.0032 20.2384 67.7645 18.3211 67.7645 15.7365Z" fill="#4285F4"/>
<path d="M76.2194 0.862305L72.9309 0.862305V22.7062H76.2194V0.862305Z" fill="#34A853"/>
<path d="M88.8627 18.1631L91.4075 19.8463C90.7254 20.8695 89.799 21.7065 88.7121 22.2816C87.6252 22.8567 86.412 23.1517 85.1824 23.14C80.9544 23.14 77.7838 19.8463 77.7838 15.6634C77.7838 11.2395 80.9943 8.18677 84.8305 8.18677C88.7066 8.18677 90.5858 11.2793 91.2116 12.9227L91.5583 13.7895L81.5819 17.8892C82.3256 19.3766 83.5391 20.1601 85.1824 20.1601C86.8657 20.2381 88.0011 19.4164 88.8627 18.1631ZM81.0341 15.5022L87.6891 12.7286C87.3424 11.789 86.2017 11.1684 84.9155 11.1684C83.2721 11.1285 80.9613 12.6176 81.0411 15.5143L81.0341 15.5022Z" fill="#EA4335"/>
</svg>
