<svg width="26" height="35" viewBox="0 0 26 35" fill="none" xmlns="http://www.w3.org/2000/svg">
<path d="M25.3477 9.58398V32.7441C25.3477 33.9883 24.3359 35 23.0918 35H2.25586C1.01172 35 0 33.9883 0 32.7441V2.25586C0 1.01172 1.01172 0 2.25586 0H15.7637L25.3477 9.58398Z" fill="#744ABD"/>
<path d="M7.95703 15.0906H19.1543V16.533H7.95703V15.0906Z" fill="white"/>
<path d="M5.41406 16.6149C5.85956 16.6149 6.2207 16.2538 6.2207 15.8083C6.2207 15.3628 5.85956 15.0016 5.41406 15.0016C4.96857 15.0016 4.60742 15.3628 4.60742 15.8083C4.60742 16.2538 4.96857 16.6149 5.41406 16.6149Z" fill="white"/>
<path d="M7.95703 19.1921H19.1543V20.6345H7.95703V19.1921Z" fill="white"/>
<path d="M5.41406 20.7166C5.85956 20.7166 6.2207 20.3554 6.2207 19.9099C6.2207 19.4644 5.85956 19.1033 5.41406 19.1033C4.96857 19.1033 4.60742 19.4644 4.60742 19.9099C4.60742 20.3554 4.96857 20.7166 5.41406 20.7166Z" fill="white"/>
<path d="M7.95703 23.2938H19.1543V24.7361H7.95703V23.2938Z" fill="white"/>
<path d="M5.41406 24.8181C5.85956 24.8181 6.2207 24.457 6.2207 24.0115C6.2207 23.566 5.85956 23.2048 5.41406 23.2048C4.96857 23.2048 4.60742 23.566 4.60742 24.0115C4.60742 24.457 4.96857 24.8181 5.41406 24.8181Z" fill="white"/>
<path d="M25.3477 9.58398H18.0195C16.7754 9.58398 15.7637 8.57226 15.7637 7.32812V0L25.3477 9.58398Z" fill="#563988"/>
</svg>
