<svg width="36" height="33" viewBox="0 0 36 33" fill="none" xmlns="http://www.w3.org/2000/svg">
<path d="M30.6886 29.397C30.212 30.2254 30.4232 30.8936 29.6241 31.3541C28.825 31.8155 27.9048 32.0694 26.9472 32.0694H8.43603C7.47932 32.0694 6.55997 31.8155 5.76003 31.355C4.96008 30.8944 5.17118 30.2254 4.69458 29.397L11.5272 21.3796H23.856L30.6886 29.397Z" fill="#1E88E5"/>
<path d="M20.7766 0.889956C21.7324 0.888167 22.6509 0.252146 23.4499 0.713573C24.249 1.17593 24.9287 1.84488 25.407 2.67425L34.6626 18.7054C35.141 19.5338 35.3815 20.4576 35.3824 21.3796C35.3833 22.3034 34.2537 23.2262 33.7736 24.0529L23.8615 21.3761L17.6935 10.6925L20.7766 0.889956Z" fill="#FBC02D"/>
<path d="M35.3832 21.3796C35.3832 22.306 35.1427 23.2236 34.6617 24.052L31.3924 29.7087C30.9202 30.4035 30.3145 30.9558 29.6197 31.3567L23.8561 21.3795H35.3832V21.3796Z" fill="#E53935"/>
<path d="M1.60969 24.0529C1.13044 23.2263 0.000854492 22.3034 0.000854492 21.3805C0.00171349 20.4577 0.241376 19.5339 0.720627 18.7045L9.97623 2.67339C10.4546 1.84495 11.1343 1.175 11.9325 0.713574C12.7315 0.251217 13.6508 0.887309 14.6067 0.889099L17.6881 10.696L11.5219 21.376L1.60969 24.0529Z" fill="#4CAF50"/>
<path d="M11.5272 21.3796L5.76355 31.3568C5.06868 30.9559 4.46294 30.4036 3.99085 29.7088L0.721563 24.0521C0.240522 23.2236 0 22.3061 0 21.3796H11.5272Z" fill="#1565C0"/>
<path d="M23.4464 0.712685L17.6917 10.6898L11.9281 0.712613C12.623 0.311745 13.4069 0.0623487 14.2443 0.00887585L20.774 0C21.736 0 22.6536 0.249396 23.4464 0.712685Z" fill="#2E7D32"/>
</svg>
