<svg width="18" height="27" viewBox="0 0 18 27" fill="none" xmlns="http://www.w3.org/2000/svg">
<path d="M8.8248 27C13.6986 27 17.6496 23.049 17.6496 18.1752C17.6496 13.3014 13.6986 9.3504 8.8248 9.3504C3.951 9.3504 0 13.3014 0 18.1752C0 23.049 3.951 27 8.8248 27Z" fill="url(#paint0_linear_169_2564)"/>
<path d="M15.6626 23.7537C16.9045 22.2333 17.6497 20.2914 17.6497 18.1751C17.6497 17.8678 17.6339 17.564 17.6032 17.2648H9.17371L15.6626 23.7537Z" fill="url(#paint1_linear_169_2564)"/>
<path d="M8.82483 8.80731H17.6321V17.6145H10.0174C9.35874 17.6145 8.82483 17.0806 8.82483 16.422V8.80731Z" fill="url(#paint2_linear_169_2564)"/>
<path d="M10.0174 0H16.4396C17.0982 0 17.6321 0.533911 17.6321 1.19255V8.80723H8.82483V1.19255C8.82483 0.533911 9.35874 0 10.0174 0V0Z" fill="url(#paint3_linear_169_2564)"/>
<defs>
<linearGradient id="paint0_linear_169_2564" x1="6.21348" y1="15.5639" x2="13.3706" y2="22.721" gradientUnits="userSpaceOnUse">
<stop stop-color="#FFD833"/>
<stop offset="1" stop-color="#F2B631"/>
</linearGradient>
<linearGradient id="paint1_linear_169_2564" x1="13.4117" y1="21.4949" x2="13.4117" y2="14.8302" gradientUnits="userSpaceOnUse">
<stop stop-color="#F9A126" stop-opacity="0"/>
<stop offset="1" stop-color="#EC4437"/>
</linearGradient>
<linearGradient id="paint2_linear_169_2564" x1="13.1416" y1="12.7748" x2="17.1019" y2="16.7351" gradientUnits="userSpaceOnUse">
<stop stop-color="#F2B631"/>
<stop offset="1" stop-color="#F9A126"/>
</linearGradient>
<linearGradient id="paint3_linear_169_2564" x1="11.4588" y1="2.98318" x2="16.3092" y2="7.83369" gradientUnits="userSpaceOnUse">
<stop stop-color="#F9A126"/>
<stop offset="1" stop-color="#EC4437"/>
</linearGradient>
</defs>
</svg>
