<svg width="32" height="33" viewBox="0 0 32 33" fill="none" xmlns="http://www.w3.org/2000/svg">
<path d="M7.18116 17.8012V7.07562H2.49492C1.11546 7.07562 0 8.19768 0 9.57715V31.7477C0 32.8631 1.34647 33.4175 2.13191 32.6321L7.28676 27.4772H21.9659C23.3454 27.4772 24.4608 26.3618 24.4608 24.9823V20.2961H9.68268C8.30321 20.2961 7.18116 19.1806 7.18116 17.8012Z" fill="#00AC47"/>
<path d="M29.1472 0H9.68279C8.30332 0 7.18787 1.11546 7.18787 2.49492V7.07555H21.966C23.3455 7.07555 24.4609 8.19101 24.4609 9.57048V20.2894H29.1472C30.5266 20.2894 31.6421 19.174 31.6421 17.7945V2.49492C31.6421 1.11546 30.5266 0 29.1472 0Z" fill="#5BB974"/>
<path d="M21.9658 7.07562H7.18103V17.7946C7.18103 19.174 8.29649 20.2895 9.67596 20.2895H24.4541V9.57715C24.4607 8.19768 23.3452 7.07562 21.9658 7.07562Z" fill="#00832D"/>
</svg>
