<svg width="24" height="18" viewBox="0 0 24 18" fill="none" xmlns="http://www.w3.org/2000/svg">
<path d="M18.3659 5.80488C18.2878 5.80488 18.2098 5.80488 18.1366 5.80976H16.6293C15.4878 2.43415 12.2976 0 8.53658 0C3.82439 0 0 3.82439 0 8.53658C0 13.2488 3.82439 17.0732 8.53658 17.0732H18.3659C21.478 17.0732 24 14.5512 24 11.439C24 8.32683 21.478 5.80488 18.3659 5.80488Z" fill="#498AF4"/>
<path d="M17.9902 11.2731L11.4585 17.7999C9.32675 15.6682 7.19504 13.5365 5.06334 11.4048C4.25358 10.595 4.98041 9.71212 4.17065 8.90236C4.77553 8.29749 3.8487 7.77066 4.4487 7.16578L7.4487 4.16578C8.01943 3.59505 7.92675 4.26822 9.35602 4.60968C10.3219 4.83895 10.8292 4.12188 11.6633 4.95602C13.7755 7.05846 15.8828 9.16578 17.9902 11.2731Z" fill="url(#paint0_linear_169_1587)"/>
<path d="M11.6097 4.92666C9.80975 3.12666 6.89268 3.12666 5.09268 4.92666C3.29268 6.72666 3.29268 9.64373 5.09268 11.4437C6.68292 13.034 9.14633 13.2193 10.9366 11.9998L13.6049 14.6681C13.8049 14.8681 14.1268 14.8681 14.3268 14.6681L14.8293 14.1657C15.0293 13.9657 15.0293 13.6437 14.8293 13.4437L12.161 10.7754C13.3805 8.98032 13.2 6.5169 11.6097 4.92666ZM10.4488 10.3364C9.28292 11.5023 7.38536 11.5023 6.21951 10.3364C5.05365 9.17056 5.05365 7.273 6.21951 6.10715C7.38536 4.94129 9.28292 4.94129 10.4488 6.10715C11.6146 7.273 11.6146 9.16568 10.4488 10.3364Z" fill="#FDFEFF"/>
<defs>
<linearGradient id="paint0_linear_169_1587" x1="6.49037" y1="6.30499" x2="17.301" y2="17.1155" gradientUnits="userSpaceOnUse">
<stop stop-opacity="0.3"/>
<stop offset="0.6472" stop-opacity="0"/>
</linearGradient>
</defs>
</svg>
