<svg width="36" height="27" viewBox="0 0 36 27" fill="none" xmlns="http://www.w3.org/2000/svg">
<path d="M2.40991 26.5158H8.03304V12.8597L0 6.8349V24.1059C0 25.4394 1.08044 26.5158 2.40991 26.5158Z" fill="#4285F4"/>
<path d="M27.3124 26.5158H32.9355C34.269 26.5158 35.3454 25.4354 35.3454 24.1059V6.8349L27.3124 12.8597" fill="#34A853"/>
<path d="M27.3124 2.41675V12.8597L35.3454 6.83492V3.6217C35.3454 0.641447 31.9434 -1.05754 29.5616 0.72981" fill="#FBBC04"/>
<path d="M8.03308 12.8598V2.41681L17.6727 9.64654L27.3124 2.41681V12.8598L17.6727 20.0895" fill="#EA4335"/>
<path d="M0 3.6217V6.83492L8.03304 12.8597V2.41675L5.78379 0.72981C3.39798 -1.05754 0 0.641447 0 3.6217Z" fill="#C5221F"/>
</svg>
