<svg width="17" height="22" viewBox="0 0 17 22" fill="none" xmlns="http://www.w3.org/2000/svg">
<path d="M16.0173 5.34229H10.6165C10.6153 5.34991 10.6113 5.3568 10.6052 5.36158C10.6052 9.08648 10.6052 12.8119 10.6052 16.5379C10.6052 16.57 10.6052 16.6022 10.6052 16.6343C10.6061 16.6382 10.6079 16.6418 10.6104 16.6449C10.6129 16.648 10.6161 16.6504 10.6197 16.652H11.7725H16.035C16.035 16.6006 16.0463 16.5491 16.0463 16.4912C16.0463 13.0311 16.0463 9.57152 16.0463 6.11245C16.0634 5.85542 16.0537 5.5973 16.0173 5.34229Z" fill="#2683FC"/>
<path d="M10.6037 21.9901H5.36523V19.6764C5.36523 18.6677 5.36523 17.6596 5.36523 16.652V16.6343H10.6005C10.6013 16.6381 10.6031 16.6417 10.6056 16.6448C10.6081 16.6479 10.6113 16.6503 10.6149 16.652C10.6149 17.0089 10.6149 17.3659 10.6149 17.7228V18.1103C10.6149 18.3097 10.6149 18.5074 10.6149 18.7068C10.6085 19.8002 10.6047 20.8946 10.6037 21.9901Z" fill="#07AB48"/>
<path d="M16.0173 5.34221H10.6165C10.6165 4.17168 10.6165 3.00169 10.6165 1.83223C10.6165 1.22767 10.6165 0.623113 10.6165 0.0185547C11.0715 0.460719 11.5297 0.901275 11.9831 1.34665C13.308 2.65117 14.6329 3.95837 15.9578 5.26825C15.979 5.29172 15.9989 5.31642 16.0173 5.34221Z" fill="#E94034"/>
<path d="M10.6006 16.6292H5.36694C5.36694 14.0276 5.36694 11.4261 5.36694 8.82458C5.36694 7.72695 5.36694 6.62823 5.36694 5.52845C5.36694 5.4159 5.36694 5.34033 5.52773 5.34033C7.19241 5.34033 8.85656 5.34033 10.5202 5.34033C10.5516 5.34279 10.5827 5.34763 10.6134 5.3548C10.6134 9.0797 10.6134 12.8051 10.6134 16.5311C10.6086 16.5649 10.6038 16.597 10.6006 16.6292Z" fill="white"/>
<path d="M10.6101 1.82892C10.6101 1.22436 10.6101 0.619805 10.6101 0.0152466C10.2352 -0.00508221 9.85951 -0.00508221 9.48462 0.0152466H8.45236C8.37519 0.0152466 8.29158 0.00720741 8.22083 0.00720741H4.88933C3.69629 0.00720741 2.50164 0.00720741 1.307 0.00720741C1.1413 0.00163665 0.976153 0.0290149 0.821122 0.0877548C0.666091 0.146495 0.524264 0.235428 0.403864 0.349396C0.283464 0.463365 0.186887 0.600102 0.119733 0.751678C0.0525798 0.903255 0.0161858 1.06665 0.0126615 1.2324C0.00301425 1.48323 0.0126615 1.73406 0.0126615 1.98328C-0.00343125 2.07368 -0.00343125 2.16621 0.0126615 2.25662V2.40615C-0.00422049 2.57455 -0.00422049 2.74422 0.0126615 2.91263C0.0126615 4.83028 0.0126615 6.749 0.0126615 8.6688C-0.0026153 8.86734 -0.0026153 9.06677 0.0126615 9.26532V15.4315C0.0126615 15.6293 0.0126615 15.8254 0.0126615 16.0216V16.6422H5.354V16.6245C5.354 14.023 5.354 11.4215 5.354 8.81994C5.354 7.7223 5.354 6.62359 5.354 5.5238C5.354 5.41125 5.354 5.33568 5.51479 5.33568C7.17947 5.33568 8.84361 5.33568 10.5072 5.33568C10.5386 5.33815 10.5698 5.34298 10.6005 5.35015C10.6065 5.34538 10.6106 5.33848 10.6117 5.33086C10.6128 4.16462 10.6123 2.99731 10.6101 1.82892Z" fill="#FDB90D"/>
<path d="M5.35872 16.647H0.0173822C0.0173822 18.0233 -0.00030438 19.398 0.0173822 20.7744C0.0254215 21.4915 0.591391 21.998 1.31493 21.998H3.8425H5.36515V19.6762C5.36301 18.6654 5.36087 17.6556 5.35872 16.647Z" fill="#1A7E38"/>
<path d="M16.0335 20.7312C16.0335 20.4097 16.0335 20.0881 16.0335 19.7665C16.0335 19.6893 16.0335 19.6057 16.0335 19.5318C16.0335 19.3855 16.0335 19.2375 16.0335 19.0896L16.0239 16.644H11.7678H10.615C10.615 17.001 10.615 17.3579 10.615 17.7149V18.1024C10.615 18.3018 10.615 18.4995 10.615 18.6989C10.615 19.7955 10.615 20.8915 10.615 21.987C10.6841 21.987 10.7549 21.9982 10.824 21.9982H14.7295C14.8983 22.0076 15.0673 21.9826 15.2261 21.9246C15.385 21.8666 15.5303 21.7768 15.6534 21.6609C15.7764 21.5449 15.8746 21.4051 15.9418 21.25C16.0091 21.0949 16.0441 20.9277 16.0448 20.7586C16.0462 20.7534 16.0459 20.7479 16.0438 20.743C16.0418 20.738 16.0382 20.7339 16.0335 20.7312Z" fill="#0D6BD9"/>
</svg>
