<svg width="26" height="35" viewBox="0 0 26 35" fill="none" xmlns="http://www.w3.org/2000/svg">
<path d="M23.0682 35H2.38636C1.06593 35 0 33.9341 0 32.6136V2.38636C0 1.06593 1.06593 0 2.38636 0H16.7046L25.4546 8.75V32.6136C25.4546 33.9341 24.3886 35 23.0682 35Z" fill="#FFBA00"/>
<path d="M16.7046 0L25.4546 8.75H16.7046V0Z" fill="#FF9500"/>
<path d="M15.5113 23.4659H9.94312V25.4546H15.5113V23.4659Z" fill="white"/>
<path d="M12.7273 11.9318C9.8716 11.9318 7.55688 14.2465 7.55688 17.1022C7.55688 18.9476 8.51938 20.5624 9.9751 21.4772H15.4637C16.9154 20.5624 17.882 18.9476 17.882 17.1022C17.882 14.2465 15.5672 11.9318 12.7115 11.9318H12.7273Z" fill="white"/>
</svg>
