<svg width="31" height="31" viewBox="0 0 31 31" fill="none" xmlns="http://www.w3.org/2000/svg">
<path d="M23.6586 7.34143H7.34143V23.6586H23.6586V7.34143Z" fill="white"/>
<path d="M19.3819 12.9748L17.8266 14.0974L17.0502 12.9188L19.8503 10.9078H20.9195V20.3926H19.3921L19.3819 12.9748ZM10.6888 19.998C10.0599 19.5682 9.60779 18.9253 9.41602 18.1881L10.8314 17.6052C10.9303 18.0456 11.1654 18.4438 11.5034 18.743C11.8276 19.0137 12.2394 19.1567 12.6616 19.1452C13.0979 19.1553 13.5227 19.005 13.8555 18.7227C14.0168 18.5944 14.1465 18.4309 14.2347 18.2447C14.323 18.0585 14.3674 17.8545 14.3646 17.6484C14.3689 17.4382 14.3234 17.2298 14.2318 17.0405C14.1402 16.8511 14.0052 16.6861 13.8377 16.5589C13.461 16.2684 12.9945 16.1189 12.5191 16.1364H11.7019V14.7363H12.4452C12.8572 14.75 13.2611 14.6204 13.5882 14.3697C13.7402 14.2513 13.8618 14.0982 13.9428 13.9234C14.0238 13.7485 14.062 13.5568 14.054 13.3642C14.0607 13.1909 14.0267 13.0184 13.9546 12.8605C13.8826 12.7027 13.7745 12.564 13.6391 12.4555C13.3392 12.2208 12.9658 12.1 12.5853 12.1144C12.2248 12.0954 11.8706 12.2147 11.595 12.4478C11.3495 12.6697 11.1653 12.9511 11.0605 13.265L9.66039 12.682C9.86174 12.1312 10.2147 11.6485 10.6786 11.2896C11.2269 10.8716 11.904 10.6582 12.5929 10.6863C13.1267 10.6778 13.6553 10.7919 14.1381 11.0198C14.5732 11.2237 14.9446 11.5422 15.2123 11.9413C15.4706 12.3339 15.6054 12.795 15.5992 13.265C15.6142 13.7165 15.4879 14.1615 15.2377 14.5378C15.0107 14.8715 14.7057 15.145 14.3493 15.3345V15.4185C14.8036 15.6035 15.1975 15.9111 15.4872 16.3069C15.789 16.7209 15.9456 17.2229 15.9327 17.735C15.9408 18.2605 15.7938 18.7767 15.5101 19.2191C15.2207 19.6567 14.8189 20.0084 14.3468 20.2373C13.8274 20.4918 13.2552 20.6201 12.6769 20.6115C11.9675 20.6147 11.2743 20.3997 10.6913 19.9955L10.6888 19.998Z" fill="#557EBF"/>
<path d="M23.6586 23.6586H7.34143V31H23.6586V23.6586Z" fill="#36A852"/>
<path d="M23.6458 0H2.4463C1.7975 0 1.17527 0.257732 0.716502 0.716502C0.257732 1.17527 0 1.7975 0 2.4463V23.6458H7.35416V7.35416H23.6458V0Z" fill="#557EBF"/>
<path d="M0 23.6458V28.541C0 29.1898 0.257732 29.812 0.716502 30.2707C1.17527 30.7295 1.7975 30.9872 2.4463 30.9872H7.35416V23.6458H0Z" fill="#1C8140"/>
<path d="M31 7.34143H23.6586V23.6586H31V7.34143Z" fill="#F9BC15"/>
<path d="M31 7.35416V2.4463C31 1.7975 30.7423 1.17527 30.2835 0.716502C29.8248 0.257732 29.2025 0 28.5537 0H23.6459V7.35416H31Z" fill="#3968B2"/>
<path d="M23.6586 31L31 23.6586H23.6586V31Z" fill="#EA4535"/>
</svg>
