<svg width="26" height="35" viewBox="0 0 26 35" fill="none" xmlns="http://www.w3.org/2000/svg">
<path d="M23.0682 35H2.38636C1.07386 35 0 33.9261 0 32.6136V2.38636C0 1.07386 1.07386 0 2.38636 0H16.7046L25.4546 8.75V32.6136C25.4546 33.9261 24.3807 35 23.0682 35Z" fill="#00AD3C"/>
<path d="M16.7046 0L25.4546 8.75H16.7046V0Z" fill="#00831E"/>
<path d="M4.77271 13.7216V24.858H20.6818V13.7216H4.77271ZM11.733 22.8693H6.76142V20.2841H11.733V22.8693ZM11.733 18.2955H6.76142V15.7103H11.733V18.2955ZM18.6932 22.8693H13.7216V20.2841H18.6932V22.8693ZM18.6932 18.2955H13.7216V15.7103H18.6932V18.2955Z" fill="#FBFFFF"/>
</svg>
