<svg width="26" height="35" viewBox="0 0 26 35" fill="none" xmlns="http://www.w3.org/2000/svg">
<path d="M25.3493 9.5864V32.7453C25.3493 33.9907 24.3391 35 23.0946 35H2.2547C1.00926 35 3.4724e-09 33.9907 3.4724e-09 32.7453V2.2547C-6.8356e-05 1.00926 1.00919 0 2.2547 0H15.7629L25.3493 9.5864Z" fill="#518EF8"/>
<path d="M19.1555 17.5721H6.19275V19.0125H19.1555V17.5721Z" fill="white"/>
<path d="M19.1555 20.789H6.19275V22.2294H19.1555V20.789Z" fill="white"/>
<path d="M19.1555 24.0059H6.19275V25.4463H19.1555V24.0059Z" fill="white"/>
<path d="M15.4114 27.2228H6.19275V28.6632H15.4114V27.2228Z" fill="white"/>
<path d="M17.0708 9.37806L25.3493 12.7886V9.58635L20.6556 8.2005L17.0708 9.37806Z" fill="#3A5BBC"/>
<path d="M25.3493 9.5864H18.0176C16.7721 9.5864 15.7629 8.57714 15.7629 7.33169V0L25.3493 9.5864Z" fill="#ACD1FC"/>
</svg>
