<svg width="23" height="20" viewBox="0 0 23 20" fill="none" xmlns="http://www.w3.org/2000/svg">
<path d="M21.5208 0H15.1952L12.6391 3.62384L11.1184 7.21532L15.1952 7.6683L19.4338 7.23149L22.5723 1.79574C23.0253 1.00303 22.4429 0 21.5208 0Z" fill="#0060D9"/>
<path d="M0.165949 1.81192L2.80294 6.32554C3.12649 6.87558 3.7089 7.21532 4.35601 7.21532L11.1183 7.23149L15.1952 0H1.20133C0.279194 0 -0.303208 1.0192 0.165949 1.81192Z" fill="#4285F4"/>
<path d="M12.461 19.3972C12.0081 20.19 10.8594 20.2061 10.3903 19.4134L7.76946 15.013C7.44591 14.463 7.42973 13.7674 7.75328 13.2011L11.1345 7.21533L19.4337 7.23151L12.461 19.3972Z" fill="#4285F4"/>
</svg>
