<svg width="36" height="29" viewBox="0 0 36 29" fill="none" xmlns="http://www.w3.org/2000/svg">
<path d="M19.9375 14.5L23.3732 18.4271L27.9931 21.3795L28.7986 14.5242L27.9931 7.82196L23.2846 10.4158L19.9375 14.5Z" fill="#00832D"/>
<path d="M0 20.7431V26.5833C0 27.9185 1.08146 29 2.41667 29H8.25694L9.46528 24.5856L8.25694 20.7431L4.2493 19.5347L0 20.7431Z" fill="#0066DA"/>
<path d="M8.25694 0L0 8.25694L4.2493 9.46528L8.25694 8.25694L9.44514 4.4668L8.25694 0Z" fill="#E94235"/>
<path d="M8.25694 8.2569H0V20.743H8.25694V8.2569Z" fill="#2684FC"/>
<path d="M33.2695 3.49609L27.9931 7.82193V21.3794L33.2936 25.7254C34.0871 26.3457 35.2471 25.7798 35.2471 24.7708V4.43054C35.2471 3.4095 34.0609 2.84963 33.2695 3.49609ZM19.9375 14.5V20.743H8.25696V29H25.5764C26.9116 29 27.9931 27.9185 27.9931 26.5833V21.3794L19.9375 14.5Z" fill="#00AC47"/>
<path d="M25.5764 0H8.25696V8.25694H19.9375V14.5L27.9931 7.82597V2.41667C27.9931 1.08146 26.9116 0 25.5764 0Z" fill="#FFBA00"/>
</svg>
