<svg width="45" height="46" viewBox="0 0 45 46" fill="none" xmlns="http://www.w3.org/2000/svg">
<path d="M4.15387 45.9135H0.124287V45.1131L2.02868 43.0846C2.2469 42.8568 2.44112 42.6073 2.60828 42.3398C2.72315 42.1574 2.78818 41.948 2.79688 41.7326C2.81087 41.5096 2.74024 41.2895 2.59908 41.1162C2.52726 41.0392 2.43928 40.979 2.34145 40.9401C2.24363 40.9011 2.13838 40.8843 2.03328 40.8908C1.91523 40.8855 1.79754 40.9072 1.68913 40.9543C1.58073 41.0013 1.48447 41.0724 1.40768 41.1622C1.24816 41.3665 1.16662 41.6209 1.17768 41.8798H8.79141e-05C-0.00319935 41.5361 0.0857562 41.1977 0.257687 40.9C0.430105 40.6038 0.681827 40.3617 0.984483 40.2008C1.31238 40.0301 1.67743 39.9432 2.04708 39.9478C2.55821 39.9234 3.0606 40.087 3.45927 40.4078C3.63023 40.5626 3.7644 40.7536 3.85196 40.9669C3.93951 41.1802 3.97823 41.4104 3.96527 41.6406C3.95871 41.9513 3.88164 42.2565 3.73987 42.533C3.52834 42.9169 3.26694 43.2711 2.96247 43.5864L1.62388 44.9756H4.15387V45.9135Z" fill="white"/>
<path d="M8.8641 40.6836L6.59631 45.9133H5.36352L7.66351 40.9734H4.72412V40.0166H8.8641V40.6836Z" fill="white"/>
<path d="M13.5837 43.4796C13.6274 44.1411 13.4494 44.7983 13.0777 45.3472C12.9003 45.5655 12.6734 45.7383 12.4157 45.8512C12.1581 45.9641 11.8772 46.0138 11.5965 45.9963C11.3186 46.0129 11.0406 45.9642 10.785 45.8539C10.5294 45.7437 10.3031 45.575 10.1245 45.3615C9.74806 44.8246 9.56482 44.176 9.6047 43.5215V42.4589C9.55874 41.7951 9.7387 41.1353 10.1153 40.5867C10.293 40.3718 10.5189 40.2018 10.7747 40.0907C11.0305 39.9796 11.3089 39.9305 11.5873 39.9473C11.8653 39.9299 12.1435 39.9783 12.3992 40.0886C12.655 40.1989 12.8811 40.368 13.0593 40.5821C13.4387 41.1177 13.6237 41.7669 13.5837 42.4221V43.4796ZM12.4153 42.2882C12.4402 41.9225 12.3705 41.5566 12.2129 41.2256C12.1446 41.1251 12.0527 41.0428 11.9452 40.9859C11.8378 40.929 11.7181 40.8992 11.5965 40.8992C11.4749 40.8992 11.3552 40.929 11.2477 40.9859C11.1403 41.0428 11.0484 41.1251 10.9801 41.2256C10.8289 41.5343 10.7578 41.8759 10.7731 42.2192V43.6503C10.7508 44.0179 10.817 44.3854 10.9663 44.7221C11.0268 44.8346 11.1184 44.9273 11.2301 44.9893C11.3418 45.0513 11.469 45.0799 11.5965 45.0717C11.7212 45.0805 11.8459 45.0536 11.9559 44.9942C12.0658 44.9347 12.1566 44.8451 12.2175 44.7359C12.3664 44.4104 12.4342 44.0537 12.4153 43.6963V42.2882Z" fill="white"/>
<path d="M18.331 43.4796C18.3761 44.1406 18.1997 44.7977 17.8296 45.3472C17.652 45.5652 17.425 45.7378 17.1674 45.8507C16.9099 45.9635 16.6291 46.0134 16.3484 45.9963C16.0705 46.0133 15.7924 45.9647 15.5367 45.8544C15.281 45.7442 15.0548 45.5753 14.8764 45.3615C14.4976 44.8257 14.3141 44.1762 14.3567 43.5215V42.4589C14.3107 41.7951 14.4907 41.1353 14.8672 40.5867C15.0449 40.3717 15.2709 40.2018 15.5267 40.0907C15.7825 39.9796 16.0609 39.9304 16.3392 39.9473C16.6172 39.9303 16.8952 39.9788 17.151 40.0891C17.4067 40.1994 17.6328 40.3683 17.8112 40.5821C18.1914 41.1172 18.3751 41.7672 18.331 42.4221V43.4796ZM17.1442 42.2887C17.1704 41.9234 17.1023 41.5575 16.9464 41.2261C16.884 41.1173 16.7922 41.0281 16.6816 40.9688C16.5711 40.9094 16.4461 40.8822 16.3208 40.8903C16.2002 40.8823 16.0798 40.9077 15.9727 40.9637C15.8655 41.0197 15.7759 41.1041 15.7136 41.2077C15.5582 41.5148 15.4867 41.8576 15.5066 42.2013V43.6319C15.4843 43.9995 15.5506 44.367 15.6998 44.7037C15.7604 44.8162 15.8519 44.9089 15.9637 44.9709C16.0754 45.0329 16.2025 45.0615 16.33 45.0533C16.4542 45.0623 16.5783 45.0355 16.6876 44.976C16.7969 44.9164 16.8867 44.8267 16.9464 44.7175C17.0947 44.3983 17.1626 44.0477 17.1442 43.6963V42.2887Z" fill="white"/>
<path d="M21.9605 45.9133H20.7921V41.3966L19.4121 41.829V40.8952L21.8363 40.0166H21.9605V45.9133Z" fill="white"/>
<path d="M23.9745 42.0314C23.9711 41.9457 23.9862 41.8602 24.0187 41.7809C24.0513 41.7015 24.1005 41.63 24.1631 41.5714C24.2965 41.4615 24.464 41.4014 24.6369 41.4014C24.8098 41.4014 24.9772 41.4615 25.1107 41.5714C25.1733 41.63 25.2225 41.7015 25.255 41.7809C25.2876 41.8602 25.3027 41.9457 25.2993 42.0314C25.3039 42.1172 25.2894 42.2031 25.2568 42.2826C25.2242 42.3622 25.1743 42.4335 25.1107 42.4914C24.9772 42.6013 24.8098 42.6614 24.6369 42.6614C24.464 42.6614 24.2965 42.6013 24.1631 42.4914C24.0995 42.4335 24.0496 42.3622 24.017 42.2826C23.9843 42.2031 23.9698 42.1172 23.9745 42.0314ZM23.9745 45.3434C23.9708 45.2576 23.9857 45.1721 24.0183 45.0927C24.0508 45.0132 24.1002 44.9418 24.1631 44.8834C24.2953 44.7709 24.4633 44.7092 24.6369 44.7092C24.8105 44.7092 24.9784 44.7709 25.1107 44.8834C25.2316 45.0059 25.2994 45.1712 25.2994 45.3434C25.2994 45.5155 25.2316 45.6808 25.1107 45.8034C24.9772 45.9133 24.8098 45.9734 24.6369 45.9734C24.464 45.9734 24.2965 45.9133 24.1631 45.8034C24.0999 45.745 24.0503 45.6736 24.0178 45.594C23.9852 45.5145 23.9704 45.4288 23.9745 45.3429V45.3434Z" fill="white"/>
<path d="M30.2448 45.9132H26.2106V45.1128L28.115 43.0842C28.3304 42.8539 28.5243 42.6044 28.6946 42.339C28.8095 42.1566 28.8745 41.9472 28.8832 41.7318C28.8959 41.5082 28.8236 41.288 28.6808 41.1154C28.6096 41.0376 28.5217 40.9769 28.4237 40.9379C28.3257 40.8988 28.2202 40.8825 28.115 40.89C27.9977 40.8851 27.8808 40.907 27.7731 40.954C27.6655 41.001 27.5701 41.0719 27.494 41.1614C27.3326 41.3647 27.2508 41.6198 27.264 41.879H26.091C26.0864 41.5358 26.1737 41.1977 26.344 40.8997C26.5148 40.6022 26.767 40.3597 27.0708 40.2005C27.3987 40.0297 27.7637 39.9428 28.1334 39.9475C28.6445 39.923 29.1469 40.0866 29.5456 40.4075C29.716 40.5624 29.8495 40.7536 29.9362 40.9669C30.023 41.1803 30.0608 41.4104 30.047 41.6403C30.0427 41.9513 29.9655 42.2569 29.8216 42.5327C29.61 42.9165 29.3486 43.2707 29.0442 43.586L27.724 44.9748H30.254L30.2448 45.9132Z" fill="white"/>
<path d="M34.9225 43.4798C34.9663 44.1413 34.7882 44.7985 34.4166 45.3474C34.2276 45.5499 33.999 45.7114 33.745 45.8219C33.491 45.9323 33.2169 45.9893 32.94 45.9893C32.663 45.9893 32.3889 45.9323 32.1349 45.8219C31.8809 45.7114 31.6523 45.5499 31.4634 45.3474C31.0869 44.8105 30.9037 44.1619 30.9436 43.5074V42.4591C30.8976 41.7953 31.0776 41.1354 31.4542 40.5869C31.643 40.3858 31.871 40.2256 32.1242 40.116C32.3774 40.0065 32.6503 39.95 32.9262 39.95C33.202 39.95 33.4749 40.0065 33.7281 40.116C33.9813 40.2256 34.2093 40.3858 34.3982 40.5869C34.7776 41.1225 34.9626 41.7717 34.9225 42.4269V43.4798ZM33.7542 42.2884C33.7791 41.9227 33.7094 41.5568 33.5518 41.2258C33.4893 41.117 33.3975 41.0278 33.287 40.9685C33.1764 40.9091 33.0514 40.882 32.9262 40.89C32.8056 40.8826 32.6854 40.9082 32.5783 40.9641C32.4713 41.0201 32.3816 41.1042 32.319 41.2074C32.1678 41.5161 32.0966 41.8577 32.112 42.201V43.6316C32.0954 44.0007 32.168 44.3683 32.3236 44.7034C32.3841 44.8159 32.4757 44.9087 32.5874 44.9706C32.6991 45.0326 32.8263 45.0612 32.9538 45.053C33.0785 45.0618 33.2031 45.0349 33.3131 44.9755C33.4231 44.916 33.5139 44.8264 33.5748 44.7172C33.7114 44.395 33.7728 44.0459 33.7542 43.6965V42.2884Z" fill="white"/>
<path d="M38.5477 45.9131H37.3839V41.3964L36.0039 41.8564V40.895L38.4419 40.021H38.5661L38.5477 45.9131Z" fill="white"/>
<path d="M41.6481 42.4544H42.2691C42.3887 42.4646 42.5092 42.4502 42.6231 42.4123C42.737 42.3743 42.8419 42.3135 42.9315 42.2336C43.0044 42.1537 43.0607 42.0601 43.097 41.9582C43.1334 41.8563 43.149 41.7482 43.1431 41.6402C43.1491 41.5385 43.1333 41.4366 43.0968 41.3414C43.0603 41.2463 43.004 41.1599 42.9315 41.0882C42.77 40.9487 42.5604 40.8777 42.3473 40.8904C42.1444 40.8836 41.9456 40.9488 41.7861 41.0744C41.7161 41.1289 41.6594 41.1987 41.6203 41.2784C41.5813 41.3581 41.5609 41.4457 41.5607 41.5344H40.3923C40.3883 41.2395 40.4751 40.9505 40.6407 40.7064C40.8149 40.4556 41.0554 40.2581 41.3353 40.136C41.6442 39.9952 41.9803 39.9246 42.3197 39.929C42.8465 39.9039 43.365 40.067 43.7825 40.389C43.959 40.5405 44.0984 40.7303 44.1901 40.944C44.2818 41.1577 44.3233 41.3896 44.3115 41.6218C44.3103 41.8896 44.225 42.1503 44.0677 42.367C43.9009 42.5942 43.6772 42.7735 43.4191 42.8868C43.7142 42.9737 43.9718 43.1567 44.1509 43.4067C44.3301 43.6568 44.4206 43.9595 44.4081 44.2668C44.4177 44.5095 44.3697 44.751 44.2682 44.9716C44.1667 45.1923 44.0145 45.3858 43.8239 45.5364C43.3897 45.8638 42.8535 46.0268 42.3105 45.9964C41.7911 46.0197 41.2805 45.8565 40.8707 45.5364C40.6882 45.3894 40.5425 45.2018 40.4451 44.9886C40.3477 44.7754 40.3013 44.5425 40.3095 44.3082H41.4779C41.4754 44.4116 41.4964 44.5142 41.5395 44.6083C41.5825 44.7023 41.6464 44.7854 41.7263 44.851C41.9081 44.9894 42.1303 45.0644 42.3588 45.0644C42.5873 45.0644 42.8095 44.9894 42.9913 44.851C43.0705 44.7763 43.1329 44.6856 43.1741 44.5848C43.2154 44.484 43.2346 44.3756 43.2305 44.2668C43.2305 43.6826 42.9039 43.3882 42.2599 43.3882H41.6481V42.4544Z" fill="white"/>
<path d="M36.0588 27.506C35.0828 28.9329 33.9053 30.211 32.5629 31.3005C32.5169 31.3649 32.3789 31.3419 32.3329 31.3005C31.7671 30.9325 31.1461 30.6381 30.5987 30.2701C31.3409 29.4103 32.0059 28.4867 32.5859 27.5101H31.8637C31.3048 28.3987 30.6625 29.232 29.9455 29.9987C28.9863 29.5858 28.0014 29.2354 26.9969 28.9499L26.8819 28.8579C27.0938 28.4212 27.2766 27.9709 27.4293 27.5101H26.8267L26.2103 28.7429C24.8242 28.4571 23.4189 28.2742 22.0059 28.1955C21.9369 27.9885 22.0059 27.6895 21.9369 27.5101H21.3435C21.2975 27.7815 21.4125 27.9701 21.2745 28.2185C19.8872 28.2676 18.506 28.4262 17.1437 28.6928L16.5457 27.4876C16.333 27.4559 16.1163 27.4637 15.9063 27.5106L16.4721 28.8584L16.4031 28.9274C15.3794 29.2275 14.3735 29.5853 13.3902 29.9992L13.2982 29.9578C12.6537 29.2497 12.0646 28.4931 11.5364 27.6946C11.426 27.3036 10.966 27.5336 10.7176 27.4876C11.3032 28.4818 11.9759 29.4222 12.7278 30.2977C12.1114 30.6657 11.4904 31.0751 10.851 31.3741C9.45072 30.2864 8.23325 28.9819 7.24458 27.5101C7.00186 27.4777 6.7559 27.4777 6.51318 27.5101C8.22662 30.1569 10.6063 32.3064 13.4132 33.7426H13.4362C13.4592 33.7426 13.5052 33.7886 13.4592 33.8116C15.2673 34.7238 17.2129 35.333 19.2183 35.6148C22.6167 36.0936 26.0811 35.5835 29.1972 34.1455C32.3134 32.7075 34.9494 30.4025 36.7902 27.506C36.547 27.483 36.3021 27.483 36.0588 27.506ZM26.5277 29.5668L26.5967 29.5208C27.5627 29.7364 28.4999 30.0653 29.3889 30.5005C28.6332 31.3291 27.7825 32.0655 26.8543 32.6947C26.3373 33.0294 25.8029 33.3365 25.2535 33.6147L24.2691 33.1547L24.3381 32.9983C25.1514 31.9099 25.8833 30.763 26.5277 29.5668ZM22.0289 28.8814C23.3146 28.8938 24.595 29.0481 25.8469 29.3414L25.8699 29.4104C25.2122 30.6583 24.4424 31.8439 23.5699 32.9523C23.1849 32.9387 22.8017 32.8925 22.4245 32.8143L22.0381 32.7683C21.9829 31.4159 21.9599 30.2292 22.0289 28.8818V28.8814ZM17.6037 29.2908C18.8148 29.0387 20.0469 28.9016 21.2837 28.8814L21.3067 32.7403C20.8467 32.8553 20.2993 32.8553 19.8439 32.9703C18.9274 31.8611 18.1302 30.6585 17.4657 29.3823L17.6037 29.2908ZM13.9237 30.5282C14.8164 30.0988 15.7504 29.7612 16.7113 29.5208H16.8033C17.4962 30.7756 18.2642 31.9875 19.1033 33.1497C18.7813 33.3337 18.3949 33.4487 18.0729 33.6097C16.5308 32.8302 15.1311 31.7962 13.9329 30.5511L13.9237 30.5282ZM16.8723 34.4285C14.9477 33.914 13.1353 33.0468 11.5272 31.8709V31.8019C12.0656 31.438 12.6316 31.1166 13.22 30.8405C14.4675 32.0625 15.8467 33.1424 17.3323 34.0605C17.2036 34.2056 17.0531 34.3297 16.8861 34.4285H16.8723ZM25.3501 34.7275C22.8646 35.2711 20.2894 35.2554 17.8107 34.6815C17.7647 34.5665 17.9257 34.5435 17.9947 34.4791C20.1199 33.0991 23.4319 33.0991 25.5111 34.5895C25.5939 34.7275 25.4237 34.6815 25.3639 34.7275H25.3501ZM31.8177 31.8019C30.5245 32.7908 29.0819 33.5672 27.5443 34.1019L26.4679 34.4469C26.2867 34.3447 26.1183 34.2211 25.9665 34.0789L26.0125 34.0099C27.4935 33.1204 28.8566 32.048 30.0697 30.8179C30.6929 31.0751 31.2842 31.4039 31.8315 31.7977L31.8177 31.8019Z" fill="white"/>
<path d="M43.166 14.0933C42.6968 12.9543 41.8953 11.983 40.866 11.3061C37.8944 9.38794 33.3727 9.24994 30.3091 10.9887C29.5025 11.4381 28.8053 12.0605 28.2677 12.8112C27.7301 13.5619 27.3653 14.4223 27.1995 15.3307C26.5831 18.2328 26.7395 21.6828 28.9383 23.8535C31.4959 26.1535 35.2219 26.6406 38.5338 25.6935C38.8812 25.6209 39.2181 25.505 39.5366 25.3485L39.6332 25.3025C40.721 24.8548 41.6726 24.13 42.3932 23.2003C44.0768 20.6993 44.1918 16.9273 43.166 14.0933ZM37.7748 20.6073C37.7226 20.898 37.599 21.1713 37.4152 21.4025C37.2313 21.6337 36.993 21.8157 36.7215 21.9321C36.2395 22.1237 35.7212 22.2065 35.2036 22.1747C34.686 22.1429 34.1817 21.9972 33.7269 21.7481C33.0185 21.2467 32.9311 20.4003 32.8391 19.5999C32.7701 18.0221 32.6551 16.3799 33.0875 14.9176C33.4325 14.0252 34.3709 13.7998 35.2127 13.7308C35.638 13.6658 36.0729 13.7113 36.4756 13.8627C36.8784 14.0141 37.2355 14.2665 37.5126 14.5956C37.8576 15.1246 37.8346 15.8054 37.9036 16.4356C37.8898 17.7268 38.0002 19.2816 37.7748 20.6073Z" fill="white"/>
<path d="M21.2518 22.2074C20.205 22.533 19.0888 22.5646 18.0252 22.2986C16.9617 22.0327 15.9917 21.4795 15.2213 20.6995C15.0373 20.4695 14.9223 20.1981 14.7613 19.9681L11.6747 19.9911C11.6333 21.8311 11.6057 23.965 11.6747 25.7958H15.1017L15.1477 24.701C15.5341 24.8804 15.9251 25.1104 16.3115 25.3174C18.6896 26.3202 21.7532 26.5502 24.1038 25.3174C24.9395 24.8516 25.6142 24.1432 26.0388 23.2859C26.4634 22.4285 26.618 21.4625 26.482 20.5155C26.229 18.5743 24.4028 16.8355 22.5536 16.3346L17.0337 14.7154L16.6243 14.5084C16.5295 14.4388 16.4558 14.3445 16.4111 14.2358C16.3665 14.127 16.3527 14.0081 16.3713 13.892C16.8083 13.1376 17.8111 13.3676 18.5654 13.3906C20.1662 13.6206 21.8084 14.168 22.7468 15.6538C23.7542 15.6538 24.918 15.6768 26.0174 15.6538C26.0588 13.777 25.9944 12.1353 25.9714 10.2355C24.9456 10.2355 23.6714 10.2355 22.6594 10.2585C22.6677 10.5667 22.6446 10.875 22.5904 11.1785L21.5048 10.5796C21.3254 10.506 20.824 10.322 20.824 10.322C20.824 10.322 15.3041 9.50317 13.1835 11.0396C11.6977 12.1344 11.2423 14.0981 11.6333 15.8369C11.9277 17.4837 13.4733 18.693 14.9683 19.2634C17.0015 19.9948 19.1082 20.5192 21.1828 21.2276C21.3898 21.3196 21.6428 21.5266 21.6152 21.7796C21.5876 22.0326 21.4128 22.1154 21.2518 22.2074Z" fill="white"/>
<path d="M10.7042 22.0232C9.94981 21.9772 9.10801 22.0232 8.37661 21.9542V13.9323L8.41801 13.8679H10.6812C10.7042 12.5616 10.7226 11.1682 10.6582 9.98142L2.05624 9.93542H0.639448C0.616448 11.1498 0.616448 12.5662 0.639448 13.7994C1.41684 13.8224 2.14824 13.7994 2.90264 13.8684V21.9772L0.639448 22.0232C0.598048 23.302 0.598048 24.5348 0.639448 25.7902H10.7042V22.0232Z" fill="white"/>
<path d="M7.19917 8.19666C7.75998 7.40104 8.37475 6.64487 9.03916 5.93348C9.58127 5.36751 10.1775 4.856 10.8194 4.40628C11.4128 4.79268 12.0751 5.11468 12.6593 5.47808C11.9312 6.34353 11.2743 7.26655 10.6952 8.23806C10.9197 8.29776 11.156 8.29776 11.3806 8.23806C11.9467 7.36889 12.5886 6.5515 13.2987 5.79548C14.2831 6.15887 15.2445 6.54987 16.2473 6.82127L16.3393 6.91327L15.7643 8.21966C15.9836 8.25646 16.2075 8.25646 16.4267 8.21966C16.6337 7.83327 16.7947 7.39627 17.0247 7.00987C18.386 7.30604 19.7721 7.47391 21.1647 7.51127C21.3441 7.67227 21.2061 8.01727 21.2797 8.21966H21.8961C21.9651 7.98967 21.8961 7.73667 21.9651 7.53427C23.3111 7.48599 24.6496 7.3104 25.9625 7.00987H26.0775L26.6939 8.19666C26.9075 8.22895 27.1256 8.21483 27.3333 8.15526L26.7629 6.82587L26.8089 6.78447C27.8439 6.487 28.8582 6.12126 29.8449 5.68968C30.5632 6.47513 31.2199 7.31481 31.8091 8.20126C32.0383 8.22446 32.2697 8.21048 32.4945 8.15987C32.2178 7.6478 31.8895 7.16537 31.5147 6.72007C31.2107 6.29451 30.8738 5.89339 30.5073 5.5204V5.4054L32.1081 4.4854L32.3381 4.3934C33.733 5.47049 34.9513 6.75864 35.949 8.21138C36.2204 8.21138 36.4504 8.29878 36.6804 8.18838C35.1855 5.89475 33.1878 3.97165 30.8391 2.56493C28.4903 1.15821 25.852 0.304798 23.1243 0.0694226L23.1013 0.115422L23.0553 0.0648226C22.3725 -0.013082 21.6835 -0.0207889 20.9991 0.0418227C20.7184 0.026487 20.4368 0.0341794 20.1573 0.0648226C17.3999 0.271434 14.7281 1.11556 12.3525 2.5307C9.97696 3.94583 7.96246 5.89331 6.46777 8.21966C6.71143 8.24658 6.95768 8.23884 7.19917 8.19666ZM16.6843 6.19153H16.5923C15.664 5.95462 14.7552 5.64706 13.8737 5.27154L13.9197 5.13354C15.121 3.95149 16.4821 2.94365 17.9631 2.13941C18.3035 2.27741 18.6485 2.39241 18.9889 2.55341L18.9199 2.76041C18.0967 3.85134 17.3497 4.99777 16.6843 6.19153ZM21.2291 6.80793C20.6151 6.85341 19.998 6.83027 19.3891 6.73893C18.71 6.67192 18.0377 6.54883 17.3789 6.37093C18.0418 5.09485 18.8374 3.8922 19.7525 2.78295L21.2153 2.98995C21.2843 4.17674 21.2291 5.54754 21.2291 6.80839V6.80793ZM21.9375 6.80793C21.8961 5.59354 21.9145 4.24574 21.9375 2.98995L23.3543 2.80595C24.2658 3.90561 25.0554 5.10075 25.7095 6.37047C24.4748 6.67249 23.2086 6.82691 21.9375 6.83047V6.80793ZM29.2285 5.20714C28.3351 5.6222 27.4008 5.94287 26.4409 6.16393C25.7219 4.927 24.9373 3.72944 24.0903 2.57641C24.4077 2.39241 24.7987 2.25901 25.1391 2.07501C26.6738 2.86845 28.0715 3.90259 29.2791 5.13814L29.2285 5.20714ZM26.3029 1.29716C28.2383 1.81688 30.0602 2.69195 31.6757 3.87774L31.6343 3.96974L30.0565 4.86214H29.9415C28.7312 3.6407 27.3674 2.58167 25.8843 1.71161C25.9119 1.55062 26.1465 1.43562 26.3029 1.32062V1.29716ZM25.3829 1.06716V1.11316C24.3125 1.8436 23.0572 2.25631 21.7622 2.3036C20.4672 2.35089 19.1852 2.03084 18.0643 1.38042C17.9493 1.29302 17.7193 1.24702 17.6963 1.08602C20.2258 0.49197 22.8587 0.493545 25.3875 1.09062L25.3829 1.06716ZM11.4496 3.92834C12.8824 2.8669 14.48 2.04809 16.1783 1.50462C16.2473 1.43562 16.2933 1.36662 16.3853 1.36662V1.41262C16.5693 1.45402 16.7073 1.25162 16.8453 1.41262C16.9833 1.57362 17.1397 1.61962 17.2547 1.73461C15.7744 2.65014 14.4026 3.73035 13.1653 4.9546C12.5459 4.71215 11.9613 4.38888 11.4266 3.9932L11.4496 3.92834Z" fill="white"/>
</svg>
