<svg width="158" height="51" viewBox="0 0 158 51" fill="none" xmlns="http://www.w3.org/2000/svg">
<g filter="url(#filter0_d_23_172)">
<rect x="26" y="11" width="122" height="26" rx="5" fill="url(#paint0_linear_23_172)"/>
<rect x="26.5" y="11.5" width="121" height="25" rx="4.5" stroke="url(#paint1_linear_23_172)"/>
</g>
<g filter="url(#filter1_d_23_172)">
<path d="M43.0179 21.794V20.2727H50.1855V21.794H47.5137V29H45.6898V21.794H43.0179ZM58.9874 24.6364C58.9874 25.5881 58.807 26.3977 58.4462 27.0653C58.0882 27.733 57.5996 28.2429 56.9803 28.5952C56.3638 28.9446 55.6706 29.1193 54.9007 29.1193C54.1252 29.1193 53.4292 28.9432 52.8127 28.5909C52.1962 28.2386 51.709 27.7287 51.351 27.0611C50.9931 26.3935 50.8141 25.5852 50.8141 24.6364C50.8141 23.6847 50.9931 22.875 51.351 22.2074C51.709 21.5398 52.1962 21.0312 52.8127 20.6818C53.4292 20.3295 54.1252 20.1534 54.9007 20.1534C55.6706 20.1534 56.3638 20.3295 56.9803 20.6818C57.5996 21.0312 58.0882 21.5398 58.4462 22.2074C58.807 22.875 58.9874 23.6847 58.9874 24.6364ZM57.1167 24.6364C57.1167 24.0199 57.0243 23.5 56.8397 23.0767C56.6578 22.6534 56.4007 22.3324 56.0684 22.1136C55.736 21.8949 55.3468 21.7855 54.9007 21.7855C54.4547 21.7855 54.0655 21.8949 53.7331 22.1136C53.4007 22.3324 53.1422 22.6534 52.9576 23.0767C52.7757 23.5 52.6848 24.0199 52.6848 24.6364C52.6848 25.2528 52.7757 25.7727 52.9576 26.196C53.1422 26.6193 53.4007 26.9403 53.7331 27.1591C54.0655 27.3778 54.4547 27.4872 54.9007 27.4872C55.3468 27.4872 55.736 27.3778 56.0684 27.1591C56.4007 26.9403 56.6578 26.6193 56.8397 26.196C57.0243 25.7727 57.1167 25.2528 57.1167 24.6364ZM52.6806 19.5568L54.3979 18.2315H55.378L57.1039 19.5568H55.7956L54.8965 18.8409L53.9846 19.5568H52.6806ZM56.6564 18.8068L57.6536 17.2088H59.0598L57.6834 18.8068H56.6564ZM59.6234 21.794V20.2727H66.791V21.794H64.1191V29H62.2953V21.794H59.6234ZM78.0485 20.2727V29H76.4547L72.6578 23.5071H72.5939V29H70.7488V20.2727H72.3681L76.1351 25.7614H76.2118V20.2727H78.0485ZM79.573 29V20.2727H81.4181V23.8736H85.1639V20.2727H87.0048V29H85.1639V25.3949H81.4181V29H79.573ZM90.0304 29H88.0531L91.0659 20.2727H93.4437L96.4522 29H94.475L92.2889 22.267H92.2207L90.0304 29ZM89.9068 25.5696H94.5772V27.0099H89.9068V25.5696ZM90.0346 19.5568L91.752 18.2315H92.7321L94.4579 19.5568H93.1497L92.2505 18.8409L91.3386 19.5568H90.0346ZM94.0105 18.8068L95.0076 17.2088H96.4139L95.0375 18.8068H94.0105ZM96.1039 21.794V20.2727H103.271V21.794H100.6V29H98.7757V21.794H96.1039ZM107.178 29V27.6705L110.285 24.794C110.549 24.5384 110.77 24.3082 110.949 24.1037C111.131 23.8991 111.269 23.6989 111.363 23.5028C111.456 23.304 111.503 23.0895 111.503 22.8594C111.503 22.6037 111.445 22.3835 111.329 22.1989C111.212 22.0114 111.053 21.8679 110.851 21.7685C110.65 21.6662 110.421 21.6151 110.165 21.6151C109.898 21.6151 109.665 21.669 109.466 21.777C109.268 21.8849 109.114 22.0398 109.006 22.2415C108.898 22.4432 108.844 22.6832 108.844 22.9616H107.093C107.093 22.3906 107.222 21.8949 107.481 21.4744C107.739 21.054 108.101 20.7287 108.567 20.4986C109.033 20.2685 109.57 20.1534 110.178 20.1534C110.803 20.1534 111.347 20.2642 111.81 20.4858C112.276 20.7045 112.638 21.0085 112.897 21.3977C113.155 21.7869 113.285 22.233 113.285 22.7358C113.285 23.0653 113.219 23.3906 113.089 23.7116C112.961 24.0327 112.732 24.3892 112.403 24.7812C112.073 25.1705 111.608 25.6378 111.009 26.1832L109.735 27.4318V27.4915H113.4V29H107.178ZM118.159 29.1918C117.426 29.1889 116.795 29.0085 116.267 28.6506C115.741 28.2926 115.336 27.7741 115.052 27.0952C114.771 26.4162 114.632 25.5994 114.634 24.6449C114.634 23.6932 114.775 22.8821 115.056 22.2116C115.34 21.5412 115.745 21.0312 116.271 20.6818C116.799 20.3295 117.428 20.1534 118.159 20.1534C118.889 20.1534 119.517 20.3295 120.042 20.6818C120.57 21.0341 120.977 21.5455 121.261 22.2159C121.545 22.8835 121.686 23.6932 121.683 24.6449C121.683 25.6023 121.541 26.4205 121.257 27.0994C120.975 27.7784 120.572 28.2969 120.046 28.6548C119.521 29.0128 118.892 29.1918 118.159 29.1918ZM118.159 27.6619C118.659 27.6619 119.058 27.4105 119.356 26.9077C119.654 26.4048 119.802 25.6506 119.799 24.6449C119.799 23.983 119.731 23.4318 119.595 22.9915C119.461 22.5511 119.271 22.2202 119.024 21.9986C118.779 21.777 118.491 21.6662 118.159 21.6662C117.661 21.6662 117.264 21.9148 116.965 22.4119C116.667 22.9091 116.517 23.6534 116.514 24.6449C116.514 25.3153 116.58 25.875 116.714 26.3239C116.85 26.7699 117.042 27.1051 117.289 27.3295C117.536 27.5511 117.826 27.6619 118.159 27.6619ZM122.998 29V27.6705L126.105 24.794C126.369 24.5384 126.591 24.3082 126.77 24.1037C126.952 23.8991 127.089 23.6989 127.183 23.5028C127.277 23.304 127.324 23.0895 127.324 22.8594C127.324 22.6037 127.265 22.3835 127.149 22.1989C127.032 22.0114 126.873 21.8679 126.672 21.7685C126.47 21.6662 126.241 21.6151 125.986 21.6151C125.719 21.6151 125.486 21.669 125.287 21.777C125.088 21.8849 124.934 22.0398 124.827 22.2415C124.719 22.4432 124.665 22.6832 124.665 22.9616H122.913C122.913 22.3906 123.042 21.8949 123.301 21.4744C123.559 21.054 123.922 20.7287 124.388 20.4986C124.854 20.2685 125.39 20.1534 125.998 20.1534C126.623 20.1534 127.167 20.2642 127.631 20.4858C128.096 20.7045 128.459 21.0085 128.717 21.3977C128.976 21.7869 129.105 22.233 129.105 22.7358C129.105 23.0653 129.04 23.3906 128.909 23.7116C128.781 24.0327 128.552 24.3892 128.223 24.7812C127.893 25.1705 127.429 25.6378 126.829 26.1832L125.555 27.4318V27.4915H129.22V29H122.998ZM130.557 29V27.6705L133.664 24.794C133.928 24.5384 134.149 24.3082 134.328 24.1037C134.51 23.8991 134.648 23.6989 134.742 23.5028C134.835 23.304 134.882 23.0895 134.882 22.8594C134.882 22.6037 134.824 22.3835 134.708 22.1989C134.591 22.0114 134.432 21.8679 134.23 21.7685C134.029 21.6662 133.8 21.6151 133.544 21.6151C133.277 21.6151 133.044 21.669 132.845 21.777C132.646 21.8849 132.493 22.0398 132.385 22.2415C132.277 22.4432 132.223 22.6832 132.223 22.9616H130.472C130.472 22.3906 130.601 21.8949 130.86 21.4744C131.118 21.054 131.48 20.7287 131.946 20.4986C132.412 20.2685 132.949 20.1534 133.557 20.1534C134.182 20.1534 134.726 20.2642 135.189 20.4858C135.655 20.7045 136.017 21.0085 136.276 21.3977C136.534 21.7869 136.664 22.233 136.664 22.7358C136.664 23.0653 136.598 23.3906 136.468 23.7116C136.34 24.0327 136.111 24.3892 135.781 24.7812C135.452 25.1705 134.987 25.6378 134.388 26.1832L133.114 27.4318V27.4915H136.779V29H130.557Z" fill="white"/>
</g>
<path d="M39.4097 12.4954L30.6048 10.368C29.7857 10.1701 29.07 9.67352 28.5979 8.9756L23.5223 1.47286C22.9084 0.565389 21.9678 0.0784672 21 0C20.0322 0.0784672 19.0916 0.565389 18.4776 1.47286L13.402 8.9756C12.9299 9.67352 12.2141 10.1701 11.3951 10.368L2.59021 12.4954C0.201939 13.0726 -0.793509 15.9233 0.716621 17.8615L6.28365 25.0071C6.80147 25.6719 7.05265 26.5059 6.98773 27.3461L6.29015 36.3775C6.10097 38.8272 8.50458 40.6548 10.8146 39.8176L19.3308 36.7312C19.8689 36.5362 20.4428 36.4859 21 36.5721C21.5572 36.4859 22.1311 36.5362 22.6692 36.7312L31.1854 39.8176C33.4954 40.6548 35.899 38.8272 35.7099 36.3775L35.0123 27.3461C34.9474 26.5059 35.1984 25.6719 35.7164 25.0071L41.2834 17.8615C42.7934 15.9233 41.7981 13.0726 39.4097 12.4954V12.4954Z" fill="url(#paint2_linear_23_172)"/>
<path d="M22.6692 36.7311L31.1854 39.8175C33.4954 40.6546 35.899 38.8271 35.7099 36.3773L35.0123 27.346C34.9474 26.5058 35.1984 25.6718 35.7164 25.007L41.2834 17.8614C42.7934 15.9231 41.7981 13.0725 39.4098 12.4953L30.6049 10.3679C29.7858 10.17 29.0701 9.67341 28.598 8.97549L23.5224 1.47274C22.9084 0.565389 21.9678 0.0784672 21 0V36.572C21.5572 36.4858 22.1311 36.5361 22.6692 36.7311V36.7311Z" fill="url(#paint3_linear_23_172)"/>
<path d="M39.4093 12.4954L30.6044 10.368C30.3038 10.2953 30.0175 10.1817 29.7517 10.0335L7.30664 39.0655C8.18713 39.9166 9.51548 40.2882 10.8142 39.8175L19.3304 36.7311C19.8685 36.5361 20.4423 36.4858 20.9996 36.572C21.5568 36.4858 22.1307 36.5361 22.6688 36.7311L31.185 39.8175C33.495 40.6547 35.8986 38.8271 35.7094 36.3774L35.0118 27.346C34.9469 26.5058 35.198 25.6718 35.7159 25.007L41.283 17.8614C42.793 15.9233 41.7976 13.0726 39.4093 12.4954V12.4954Z" fill="url(#paint4_linear_23_172)"/>
<path d="M2.59023 12.4954L11.3951 10.368C11.6957 10.2953 11.9819 10.1817 12.2477 10.0335L34.693 39.0655C33.8125 39.9166 32.4841 40.2882 31.1854 39.8175L22.6692 36.7311C22.1311 36.5361 21.5573 36.4858 21 36.572C20.4428 36.4858 19.8689 36.5361 19.3308 36.7311L10.8146 39.8175C8.5046 40.6547 6.101 38.8271 6.29017 36.3774L6.98776 27.346C7.05268 26.5058 6.80161 25.6718 6.28368 25.007L0.716645 17.8614C-0.793485 15.9233 0.201851 13.0726 2.59023 12.4954V12.4954Z" fill="url(#paint5_linear_23_172)"/>
<path d="M0.24664 14.5357C-0.172113 15.5915 -0.0717062 16.8497 0.716548 17.8614L6.28358 25.007C6.8014 25.6718 7.05258 26.5058 6.98766 27.346L6.29007 36.3773C6.1009 38.8271 8.50451 40.6546 10.8145 39.8175L19.3307 36.731C19.8688 36.5361 20.4427 36.4858 20.9999 36.572C21.5572 36.4858 22.1311 36.5361 22.6691 36.731L31.1853 39.8175C33.4954 40.6546 35.899 38.8271 35.7098 36.3773L35.0122 27.346C34.9762 26.8798 35.0409 26.4166 35.191 25.982L0.24664 14.5357Z" fill="url(#paint6_linear_23_172)"/>
<path d="M41.7568 14.5357C42.1756 15.5915 42.0752 16.8497 41.2869 17.8614L35.7199 25.007C35.2021 25.6718 34.9509 26.5058 35.0158 27.346L35.7134 36.3773C35.9026 38.8271 33.499 40.6546 31.189 39.8175L22.6727 36.731C22.1347 36.5361 21.5608 36.4858 21.0036 36.572C20.4463 36.4858 19.8724 36.5361 19.3344 36.731L10.8181 39.8175C8.50812 40.6546 6.10452 38.8271 6.29369 36.3773L6.99128 27.346C7.02732 26.8798 6.96262 26.4166 6.81251 25.982L41.7568 14.5357Z" fill="url(#paint7_linear_23_172)"/>
<path d="M10.8936 27.6478C11.034 25.8304 10.4944 24.0376 9.37422 22.5994L5.67261 17.8482C5.03726 17.0327 5.45601 15.8333 6.46086 15.5906L12.3151 14.176C14.0867 13.7482 15.6252 12.681 16.6467 11.1711L19.8212 6.47839C20.3855 5.64425 21.614 5.64425 22.1784 6.47839L25.3528 11.1708C26.3746 12.6809 27.9131 13.7481 29.6848 14.1761L35.5388 15.5906C36.5437 15.8333 36.9625 17.0327 36.3271 17.8482L32.6257 22.5991C31.5051 24.0375 30.9656 25.8304 31.1061 27.6479L31.5698 33.6525C31.6494 34.6832 30.6382 35.4521 29.6663 35.0998L24.0041 33.0477C23.2093 32.7597 22.3755 32.6135 21.5259 32.6135C21.3793 32.6135 21.232 32.6179 21.0848 32.6268C21.0282 32.6301 20.9715 32.6301 20.915 32.6268C20.7678 32.6179 20.6206 32.6135 20.4738 32.6135C19.6243 32.6135 18.7905 32.7595 17.9957 33.0477L12.3334 35.0998C11.3615 35.4521 10.3502 34.6831 10.4299 33.6525L10.8936 27.6478Z" fill="url(#paint8_linear_23_172)"/>
<path d="M12.5684 27.7771C12.741 25.5417 12.0774 23.3366 10.6995 21.5676L7.95375 18.0432C7.62007 17.6148 7.84003 16.9849 8.36781 16.8574L12.7101 15.8081C14.8892 15.2819 16.7814 13.9692 18.038 12.1121L20.3814 8.64798C20.6778 8.20975 21.3231 8.20975 21.6195 8.64798L23.9626 12.1117C25.2195 13.9692 27.1118 15.2819 29.2912 15.8083L33.6332 16.8574C34.161 16.9849 34.3811 17.615 34.0473 18.0432L31.3017 21.5672C29.9236 23.3362 29.2598 25.5416 29.4326 27.7773L29.7765 32.231C29.8182 32.7725 29.2871 33.1763 28.7766 32.9913L24.5766 31.4691C23.5977 31.1143 22.5715 30.9345 21.5263 30.9345C21.3645 30.9345 21.2001 30.9389 21.0366 30.9478C21.0124 30.9491 20.9883 30.9491 20.9641 30.9478C20.8009 30.9389 20.6362 30.9344 20.4743 30.9344C19.429 30.9344 18.4027 31.1142 17.4239 31.4691L13.224 32.9912C12.7135 33.1762 12.1824 32.7723 12.2241 32.2309L12.5684 27.7771Z" fill="url(#paint9_linear_23_172)"/>
<path d="M22.3061 15.8731L18.7241 18.5969L20.5524 20.4251L20.2585 27.013L24.7934 31.5479L28.7763 32.9914C29.2869 33.1764 29.818 32.7726 29.7762 32.2311L29.4324 27.7774C29.3225 26.3558 29.5522 24.9469 30.0873 23.6543L22.3061 15.8731Z" fill="url(#paint10_linear_23_172)"/>
<path d="M20.0615 18.4072L19.5958 18.6963C19.4511 18.7927 19.3066 18.8248 19.1943 18.8248C18.7285 18.8248 18.4072 18.3269 18.4072 17.829C18.4072 17.4918 18.5518 17.1705 18.8731 16.9777L20.9933 15.6928C21.1218 15.6125 21.2824 15.5804 21.4591 15.5804C21.9731 15.5804 22.5673 15.8856 22.5673 16.3675V26.583C22.5673 27.097 21.9409 27.354 21.3145 27.354C20.688 27.354 20.0616 27.097 20.0616 26.583V18.4072H20.0615Z" fill="url(#paint11_linear_23_172)"/>
<path d="M38.488 21.4492H3.51172L6.28359 25.007C6.80141 25.6718 7.0526 26.5058 6.98767 27.346L6.29009 36.3773C6.10091 38.8271 8.50452 40.6546 10.8145 39.8175L19.3308 36.731C19.8688 36.536 20.4427 36.4857 21 36.5719C21.5572 36.4857 22.1311 36.536 22.6691 36.731L31.1854 39.8175C33.4954 40.6546 35.899 38.8271 35.7097 36.3773L35.0121 27.346C34.9472 26.5058 35.1983 25.6718 35.7162 25.007L38.488 21.4492Z" fill="url(#paint12_linear_23_172)"/>
<defs>
<filter id="filter0_d_23_172" x="16" y="5" width="142" height="46" filterUnits="userSpaceOnUse" color-interpolation-filters="sRGB">
<feFlood flood-opacity="0" result="BackgroundImageFix"/>
<feColorMatrix in="SourceAlpha" type="matrix" values="0 0 0 0 0 0 0 0 0 0 0 0 0 0 0 0 0 0 127 0" result="hardAlpha"/>
<feOffset dy="4"/>
<feGaussianBlur stdDeviation="5"/>
<feComposite in2="hardAlpha" operator="out"/>
<feColorMatrix type="matrix" values="0 0 0 0 0.341667 0 0 0 0 0.152615 0 0 0 0 0.00284722 0 0 0 0.1 0"/>
<feBlend mode="normal" in2="BackgroundImageFix" result="effect1_dropShadow_23_172"/>
<feBlend mode="normal" in="SourceGraphic" in2="effect1_dropShadow_23_172" result="shape"/>
</filter>
<filter id="filter1_d_23_172" x="39.0181" y="15.2088" width="101.761" height="19.983" filterUnits="userSpaceOnUse" color-interpolation-filters="sRGB">
<feFlood flood-opacity="0" result="BackgroundImageFix"/>
<feColorMatrix in="SourceAlpha" type="matrix" values="0 0 0 0 0 0 0 0 0 0 0 0 0 0 0 0 0 0 127 0" result="hardAlpha"/>
<feOffset dy="2"/>
<feGaussianBlur stdDeviation="2"/>
<feComposite in2="hardAlpha" operator="out"/>
<feColorMatrix type="matrix" values="0 0 0 0 0.725 0 0 0 0 0.725 0 0 0 0 0.725 0 0 0 0.25 0"/>
<feBlend mode="normal" in2="BackgroundImageFix" result="effect1_dropShadow_23_172"/>
<feBlend mode="normal" in="SourceGraphic" in2="effect1_dropShadow_23_172" result="shape"/>
</filter>
<linearGradient id="paint0_linear_23_172" x1="87" y1="11" x2="87" y2="37" gradientUnits="userSpaceOnUse">
<stop stop-color="#E6414B"/>
<stop offset="1" stop-color="#B60D00"/>
</linearGradient>
<linearGradient id="paint1_linear_23_172" x1="87" y1="11" x2="87" y2="37" gradientUnits="userSpaceOnUse">
<stop stop-color="#FDC069"/>
<stop offset="1" stop-color="#F59306"/>
</linearGradient>
<linearGradient id="paint2_linear_23_172" x1="11.6479" y1="13.7173" x2="28.5125" y2="30.582" gradientUnits="userSpaceOnUse">
<stop stop-color="#FEF0AE"/>
<stop offset="1" stop-color="#FBC56D"/>
</linearGradient>
<linearGradient id="paint3_linear_23_172" x1="30.763" y1="19.2265" x2="19.5693" y2="21.4652" gradientUnits="userSpaceOnUse">
<stop stop-color="#F6A96C" stop-opacity="0"/>
<stop offset="0.9957" stop-color="#F6A96C" stop-opacity="0.996"/>
<stop offset="1" stop-color="#F6A96C"/>
</linearGradient>
<linearGradient id="paint4_linear_23_172" x1="27.5373" y1="27.7409" x2="17.7616" y2="23.338" gradientUnits="userSpaceOnUse">
<stop stop-color="#F6A96C" stop-opacity="0"/>
<stop offset="0.9957" stop-color="#F6A96C" stop-opacity="0.996"/>
<stop offset="1" stop-color="#F6A96C"/>
</linearGradient>
<linearGradient id="paint5_linear_23_172" x1="15.42" y1="27.4102" x2="24.5241" y2="22.9327" gradientUnits="userSpaceOnUse">
<stop stop-color="#F6A96C" stop-opacity="0"/>
<stop offset="0.9957" stop-color="#F6A96C" stop-opacity="0.996"/>
<stop offset="1" stop-color="#F6A96C"/>
</linearGradient>
<linearGradient id="paint6_linear_23_172" x1="15.0687" y1="30.3689" x2="20.7401" y2="22.0857" gradientUnits="userSpaceOnUse">
<stop stop-color="#F6A96C" stop-opacity="0"/>
<stop offset="0.9957" stop-color="#F6A96C" stop-opacity="0.996"/>
<stop offset="1" stop-color="#F6A96C"/>
</linearGradient>
<linearGradient id="paint7_linear_23_172" x1="24.154" y1="26.4594" x2="23.4704" y2="13.5677" gradientUnits="userSpaceOnUse">
<stop stop-color="#F6A96C" stop-opacity="0"/>
<stop offset="0.9957" stop-color="#F6A96C" stop-opacity="0.996"/>
<stop offset="1" stop-color="#F6A96C"/>
</linearGradient>
<linearGradient id="paint8_linear_23_172" x1="28.3849" y1="30.2254" x2="11.0755" y2="12.916" gradientUnits="userSpaceOnUse">
<stop stop-color="#FEF0AE"/>
<stop offset="1" stop-color="#FBC56D"/>
</linearGradient>
<linearGradient id="paint9_linear_23_172" x1="14.1446" y1="15.8669" x2="26.5383" y2="28.2605" gradientUnits="userSpaceOnUse">
<stop stop-color="#FEF0AE"/>
<stop offset="1" stop-color="#FBC56D"/>
</linearGradient>
<linearGradient id="paint10_linear_23_172" x1="27.6307" y1="25.8325" x2="17.8362" y2="20.7394" gradientUnits="userSpaceOnUse">
<stop stop-color="#DC8758" stop-opacity="0"/>
<stop offset="0.9957" stop-color="#DC8758" stop-opacity="0.996"/>
<stop offset="1" stop-color="#DC8758"/>
</linearGradient>
<linearGradient id="paint11_linear_23_172" x1="18.7595" y1="20.3999" x2="22.3414" y2="21.8923" gradientUnits="userSpaceOnUse">
<stop stop-color="#FBC56D"/>
<stop offset="1" stop-color="#C5715A"/>
</linearGradient>
<linearGradient id="paint12_linear_23_172" x1="20.9998" y1="28.7314" x2="20.9998" y2="43.056" gradientUnits="userSpaceOnUse">
<stop stop-color="#DC8758" stop-opacity="0"/>
<stop offset="0.9957" stop-color="#DC8758" stop-opacity="0.996"/>
<stop offset="1" stop-color="#DC8758"/>
</linearGradient>
</defs>
</svg>
