<svg width="158" height="51" viewBox="0 0 158 51" fill="none" xmlns="http://www.w3.org/2000/svg">
<g filter="url(#filter0_d_23_154)">
<rect x="26" y="11" width="122" height="26" rx="5" fill="url(#paint0_linear_23_154)"/>
<rect x="26.5" y="11.5" width="121" height="25" rx="4.5" stroke="url(#paint1_linear_23_154)"/>
</g>
<g filter="url(#filter1_d_23_154)">
<path d="M43.8617 21.794V20.2727H51.0293V21.794H48.3574V29H46.5336V21.794H43.8617ZM59.8311 24.6364C59.8311 25.5881 59.6507 26.3977 59.29 27.0653C58.932 27.733 58.4434 28.2429 57.824 28.5952C57.2076 28.9446 56.5144 29.1193 55.7445 29.1193C54.9689 29.1193 54.2729 28.9432 53.6564 28.5909C53.04 28.2386 52.5527 27.7287 52.1948 27.0611C51.8368 26.3935 51.6578 25.5852 51.6578 24.6364C51.6578 23.6847 51.8368 22.875 52.1948 22.2074C52.5527 21.5398 53.04 21.0312 53.6564 20.6818C54.2729 20.3295 54.9689 20.1534 55.7445 20.1534C56.5144 20.1534 57.2076 20.3295 57.824 20.6818C58.4434 21.0312 58.932 21.5398 59.29 22.2074C59.6507 22.875 59.8311 23.6847 59.8311 24.6364ZM57.9604 24.6364C57.9604 24.0199 57.8681 23.5 57.6834 23.0767C57.5016 22.6534 57.2445 22.3324 56.9121 22.1136C56.5797 21.8949 56.1905 21.7855 55.7445 21.7855C55.2985 21.7855 54.9093 21.8949 54.5769 22.1136C54.2445 22.3324 53.986 22.6534 53.8013 23.0767C53.6195 23.5 53.5286 24.0199 53.5286 24.6364C53.5286 25.2528 53.6195 25.7727 53.8013 26.196C53.986 26.6193 54.2445 26.9403 54.5769 27.1591C54.9093 27.3778 55.2985 27.4872 55.7445 27.4872C56.1905 27.4872 56.5797 27.3778 56.9121 27.1591C57.2445 26.9403 57.5016 26.6193 57.6834 26.196C57.8681 25.7727 57.9604 25.2528 57.9604 24.6364ZM53.5243 19.5568L55.2417 18.2315H56.2218L57.9476 19.5568H56.6394L55.7402 18.8409L54.8283 19.5568H53.5243ZM57.5002 18.8068L58.4973 17.2088H59.9036L58.5272 18.8068H57.5002ZM60.4672 21.794V20.2727H67.6348V21.794H64.9629V29H63.139V21.794H60.4672ZM78.8922 20.2727V29H77.2985L73.5016 23.5071H73.4377V29H71.5925V20.2727H73.2118L76.9789 25.7614H77.0556V20.2727H78.8922ZM80.4167 29V20.2727H82.2619V23.8736H86.0076V20.2727H87.8485V29H86.0076V25.3949H82.2619V29H80.4167ZM90.8741 29H88.8968L91.9096 20.2727H94.2875L97.296 29H95.3187L93.1326 22.267H93.0645L90.8741 29ZM90.7505 25.5696H95.421V27.0099H90.7505V25.5696ZM90.8784 19.5568L92.5957 18.2315H93.5758L95.3017 19.5568H93.9934L93.0943 18.8409L92.1824 19.5568H90.8784ZM94.8542 18.8068L95.8514 17.2088H97.2576L95.8812 18.8068H94.8542ZM96.9476 21.794V20.2727H104.115V21.794H101.443V29H99.6195V21.794H96.9476ZM108.022 29V27.6705L111.128 24.794C111.393 24.5384 111.614 24.3082 111.793 24.1037C111.975 23.8991 112.113 23.6989 112.206 23.5028C112.3 23.304 112.347 23.0895 112.347 22.8594C112.347 22.6037 112.289 22.3835 112.172 22.1989C112.056 22.0114 111.897 21.8679 111.695 21.7685C111.493 21.6662 111.265 21.6151 111.009 21.6151C110.742 21.6151 110.509 21.669 110.31 21.777C110.111 21.8849 109.958 22.0398 109.85 22.2415C109.742 22.4432 109.688 22.6832 109.688 22.9616H107.937C107.937 22.3906 108.066 21.8949 108.324 21.4744C108.583 21.054 108.945 20.7287 109.411 20.4986C109.877 20.2685 110.414 20.1534 111.022 20.1534C111.647 20.1534 112.191 20.2642 112.654 20.4858C113.12 20.7045 113.482 21.0085 113.741 21.3977C113.999 21.7869 114.128 22.233 114.128 22.7358C114.128 23.0653 114.063 23.3906 113.932 23.7116C113.805 24.0327 113.576 24.3892 113.246 24.7812C112.917 25.1705 112.452 25.6378 111.853 26.1832L110.579 27.4318V27.4915H114.243V29H108.022ZM119.002 29.1918C118.269 29.1889 117.639 29.0085 117.11 28.6506C116.585 28.2926 116.18 27.7741 115.896 27.0952C115.615 26.4162 115.475 25.5994 115.478 24.6449C115.478 23.6932 115.619 22.8821 115.9 22.2116C116.184 21.5412 116.589 21.0312 117.115 20.6818C117.643 20.3295 118.272 20.1534 119.002 20.1534C119.732 20.1534 120.36 20.3295 120.886 20.6818C121.414 21.0341 121.82 21.5455 122.105 22.2159C122.389 22.8835 122.529 23.6932 122.526 24.6449C122.526 25.6023 122.384 26.4205 122.1 27.0994C121.819 27.7784 121.416 28.2969 120.89 28.6548C120.365 29.0128 119.735 29.1918 119.002 29.1918ZM119.002 27.6619C119.502 27.6619 119.901 27.4105 120.2 26.9077C120.498 26.4048 120.646 25.6506 120.643 24.6449C120.643 23.983 120.575 23.4318 120.438 22.9915C120.305 22.5511 120.115 22.2202 119.867 21.9986C119.623 21.777 119.335 21.6662 119.002 21.6662C118.505 21.6662 118.107 21.9148 117.809 22.4119C117.511 22.9091 117.36 23.6534 117.357 24.6449C117.357 25.3153 117.424 25.875 117.558 26.3239C117.694 26.7699 117.886 27.1051 118.133 27.3295C118.38 27.5511 118.67 27.6619 119.002 27.6619ZM123.842 29V27.6705L126.949 24.794C127.213 24.5384 127.434 24.3082 127.613 24.1037C127.795 23.8991 127.933 23.6989 128.027 23.5028C128.121 23.304 128.167 23.0895 128.167 22.8594C128.167 22.6037 128.109 22.3835 127.993 22.1989C127.876 22.0114 127.717 21.8679 127.515 21.7685C127.314 21.6662 127.085 21.6151 126.829 21.6151C126.562 21.6151 126.329 21.669 126.131 21.777C125.932 21.8849 125.778 22.0398 125.67 22.2415C125.562 22.4432 125.508 22.6832 125.508 22.9616H123.757C123.757 22.3906 123.886 21.8949 124.145 21.4744C124.403 21.054 124.765 20.7287 125.231 20.4986C125.697 20.2685 126.234 20.1534 126.842 20.1534C127.467 20.1534 128.011 20.2642 128.474 20.4858C128.94 20.7045 129.302 21.0085 129.561 21.3977C129.819 21.7869 129.949 22.233 129.949 22.7358C129.949 23.0653 129.883 23.3906 129.753 23.7116C129.625 24.0327 129.396 24.3892 129.067 24.7812C128.737 25.1705 128.273 25.6378 127.673 26.1832L126.399 27.4318V27.4915H130.064V29H123.842ZM135.198 20.2727V29H133.352V22.0241H133.301L131.303 23.277V21.6406L133.463 20.2727H135.198Z" fill="white"/>
</g>
<path d="M39.4097 12.4954L30.6048 10.368C29.7857 10.1701 29.07 9.67352 28.5979 8.9756L23.5223 1.47286C22.9084 0.565389 21.9678 0.0784672 21 0C20.0322 0.0784672 19.0916 0.565389 18.4776 1.47286L13.402 8.9756C12.9299 9.67352 12.2141 10.1701 11.3951 10.368L2.59021 12.4954C0.201939 13.0726 -0.793509 15.9233 0.716621 17.8615L6.28365 25.0071C6.80147 25.6719 7.05265 26.5059 6.98773 27.3461L6.29015 36.3775C6.10097 38.8272 8.50458 40.6548 10.8146 39.8176L19.3308 36.7312C19.8689 36.5362 20.4428 36.4859 21 36.5721C21.5572 36.4859 22.1311 36.5362 22.6692 36.7312L31.1854 39.8176C33.4954 40.6548 35.899 38.8272 35.7099 36.3775L35.0123 27.3461C34.9474 26.5059 35.1984 25.6719 35.7164 25.0071L41.2834 17.8615C42.7934 15.9233 41.7981 13.0726 39.4097 12.4954V12.4954Z" fill="url(#paint2_linear_23_154)"/>
<path d="M22.6692 36.7311L31.1854 39.8175C33.4954 40.6547 35.899 38.8271 35.7099 36.3773L35.0123 27.346C34.9474 26.5058 35.1984 25.6718 35.7164 25.007L41.2834 17.8614C42.7934 15.9231 41.7981 13.0725 39.4098 12.4953L30.6049 10.3679C29.7858 10.17 29.0701 9.67342 28.598 8.97549L23.5224 1.47275C22.9084 0.565397 21.9678 0.0784749 21 7.62939e-06V36.572C21.5572 36.4858 22.1311 36.5361 22.6692 36.7311V36.7311Z" fill="url(#paint3_linear_23_154)"/>
<path d="M39.4093 12.4955L30.6044 10.368C30.3038 10.2953 30.0175 10.1817 29.7517 10.0335L7.30664 39.0655C8.18713 39.9166 9.51548 40.2882 10.8142 39.8175L19.3304 36.7311C19.8685 36.5361 20.4423 36.4858 20.9996 36.572C21.5568 36.4858 22.1307 36.5361 22.6688 36.7311L31.185 39.8175C33.495 40.6547 35.8986 38.8271 35.7094 36.3774L35.0118 27.346C34.9469 26.5058 35.198 25.6718 35.7159 25.007L41.283 17.8614C42.793 15.9233 41.7976 13.0726 39.4093 12.4955V12.4955Z" fill="url(#paint4_linear_23_154)"/>
<path d="M2.59023 12.4955L11.3951 10.368C11.6957 10.2953 11.9819 10.1817 12.2477 10.0335L34.693 39.0655C33.8125 39.9166 32.4841 40.2882 31.1854 39.8175L22.6692 36.7311C22.1311 36.5361 21.5573 36.4858 21 36.572C20.4428 36.4858 19.8689 36.5361 19.3308 36.7311L10.8146 39.8175C8.5046 40.6547 6.101 38.8271 6.29017 36.3774L6.98776 27.346C7.05268 26.5058 6.80161 25.6718 6.28368 25.007L0.716645 17.8614C-0.793485 15.9233 0.201851 13.0726 2.59023 12.4955V12.4955Z" fill="url(#paint5_linear_23_154)"/>
<path d="M0.24664 14.5357C-0.172113 15.5915 -0.0717062 16.8497 0.716548 17.8614L6.28358 25.007C6.8014 25.6718 7.05258 26.5058 6.98766 27.346L6.29007 36.3773C6.1009 38.8271 8.50451 40.6546 10.8145 39.8175L19.3307 36.731C19.8688 36.5361 20.4427 36.4858 20.9999 36.572C21.5572 36.4858 22.1311 36.5361 22.6691 36.731L31.1853 39.8175C33.4954 40.6546 35.899 38.8271 35.7098 36.3773L35.0122 27.346C34.9762 26.8798 35.0409 26.4166 35.191 25.982L0.24664 14.5357Z" fill="url(#paint6_linear_23_154)"/>
<path d="M41.7568 14.5357C42.1756 15.5915 42.0752 16.8497 41.2869 17.8614L35.7199 25.007C35.2021 25.6718 34.9509 26.5058 35.0158 27.346L35.7134 36.3773C35.9026 38.8271 33.499 40.6546 31.189 39.8175L22.6727 36.731C22.1347 36.5361 21.5608 36.4858 21.0036 36.572C20.4463 36.4858 19.8724 36.5361 19.3344 36.731L10.8181 39.8175C8.50812 40.6546 6.10452 38.8271 6.29369 36.3773L6.99128 27.346C7.02732 26.8798 6.96262 26.4166 6.81251 25.982L41.7568 14.5357Z" fill="url(#paint7_linear_23_154)"/>
<path d="M10.8936 27.6478C11.034 25.8304 10.4944 24.0376 9.37422 22.5994L5.67261 17.8482C5.03726 17.0327 5.45601 15.8333 6.46086 15.5906L12.3151 14.176C14.0867 13.7482 15.6252 12.681 16.6467 11.1711L19.8212 6.47839C20.3855 5.64425 21.614 5.64425 22.1784 6.47839L25.3528 11.1708C26.3746 12.6809 27.9131 13.7481 29.6848 14.1761L35.5388 15.5906C36.5437 15.8333 36.9625 17.0327 36.3271 17.8482L32.6257 22.5991C31.5051 24.0375 30.9656 25.8304 31.1061 27.6479L31.5698 33.6525C31.6494 34.6832 30.6382 35.4521 29.6663 35.0998L24.0041 33.0477C23.2093 32.7597 22.3755 32.6135 21.5259 32.6135C21.3793 32.6135 21.232 32.6179 21.0848 32.6268C21.0282 32.6301 20.9715 32.6301 20.915 32.6268C20.7678 32.6179 20.6206 32.6135 20.4738 32.6135C19.6243 32.6135 18.7905 32.7595 17.9957 33.0477L12.3334 35.0998C11.3615 35.4521 10.3502 34.6831 10.4299 33.6525L10.8936 27.6478Z" fill="url(#paint8_linear_23_154)"/>
<path d="M12.5684 27.7771C12.741 25.5417 12.0774 23.3366 10.6995 21.5677L7.95375 18.0432C7.62007 17.6149 7.84003 16.9849 8.36781 16.8574L12.7101 15.8081C14.8892 15.2819 16.7814 13.9692 18.038 12.1121L20.3814 8.64799C20.6778 8.20976 21.3231 8.20976 21.6195 8.64799L23.9626 12.1117C25.2195 13.9692 27.1118 15.2819 29.2912 15.8083L33.6332 16.8574C34.161 16.9849 34.3811 17.615 34.0473 18.0432L31.3017 21.5672C29.9236 23.3362 29.2598 25.5416 29.4326 27.7773L29.7765 32.231C29.8182 32.7725 29.2871 33.1763 28.7766 32.9913L24.5766 31.4691C23.5977 31.1144 22.5715 30.9345 21.5263 30.9345C21.3645 30.9345 21.2001 30.939 21.0366 30.9478C21.0124 30.9491 20.9883 30.9491 20.9641 30.9478C20.8009 30.939 20.6362 30.9344 20.4743 30.9344C19.429 30.9344 18.4027 31.1142 17.4239 31.4691L13.224 32.9912C12.7135 33.1762 12.1824 32.7724 12.2241 32.2309L12.5684 27.7771Z" fill="url(#paint9_linear_23_154)"/>
<path d="M22.3061 15.8731L18.7241 18.5969L20.5524 20.4251L20.2585 27.013L24.7934 31.5479L28.7763 32.9914C29.2869 33.1764 29.818 32.7726 29.7762 32.2311L29.4324 27.7774C29.3225 26.3558 29.5522 24.9469 30.0873 23.6543L22.3061 15.8731Z" fill="url(#paint10_linear_23_154)"/>
<path d="M20.0615 18.4072L19.5958 18.6963C19.4511 18.7927 19.3066 18.8248 19.1943 18.8248C18.7285 18.8248 18.4072 18.3269 18.4072 17.829C18.4072 17.4918 18.5518 17.1705 18.8731 16.9777L20.9933 15.6928C21.1218 15.6125 21.2824 15.5804 21.4591 15.5804C21.9731 15.5804 22.5673 15.8856 22.5673 16.3675V26.583C22.5673 27.097 21.9409 27.354 21.3145 27.354C20.688 27.354 20.0616 27.097 20.0616 26.583V18.4072H20.0615Z" fill="url(#paint11_linear_23_154)"/>
<path d="M38.488 21.4492H3.51172L6.28359 25.007C6.80141 25.6718 7.0526 26.5058 6.98767 27.346L6.29009 36.3773C6.10091 38.8271 8.50452 40.6546 10.8145 39.8175L19.3308 36.731C19.8688 36.536 20.4427 36.4857 21 36.5719C21.5572 36.4857 22.1311 36.536 22.6691 36.731L31.1854 39.8175C33.4954 40.6546 35.899 38.8271 35.7097 36.3773L35.0121 27.346C34.9472 26.5058 35.1983 25.6718 35.7162 25.007L38.488 21.4492Z" fill="url(#paint12_linear_23_154)"/>
<defs>
<filter id="filter0_d_23_154" x="16" y="5" width="142" height="46" filterUnits="userSpaceOnUse" color-interpolation-filters="sRGB">
<feFlood flood-opacity="0" result="BackgroundImageFix"/>
<feColorMatrix in="SourceAlpha" type="matrix" values="0 0 0 0 0 0 0 0 0 0 0 0 0 0 0 0 0 0 127 0" result="hardAlpha"/>
<feOffset dy="4"/>
<feGaussianBlur stdDeviation="5"/>
<feComposite in2="hardAlpha" operator="out"/>
<feColorMatrix type="matrix" values="0 0 0 0 0.341667 0 0 0 0 0.152615 0 0 0 0 0.00284722 0 0 0 0.1 0"/>
<feBlend mode="normal" in2="BackgroundImageFix" result="effect1_dropShadow_23_154"/>
<feBlend mode="normal" in="SourceGraphic" in2="effect1_dropShadow_23_154" result="shape"/>
</filter>
<filter id="filter1_d_23_154" x="39.8618" y="15.2088" width="99.3359" height="19.9829" filterUnits="userSpaceOnUse" color-interpolation-filters="sRGB">
<feFlood flood-opacity="0" result="BackgroundImageFix"/>
<feColorMatrix in="SourceAlpha" type="matrix" values="0 0 0 0 0 0 0 0 0 0 0 0 0 0 0 0 0 0 127 0" result="hardAlpha"/>
<feOffset dy="2"/>
<feGaussianBlur stdDeviation="2"/>
<feComposite in2="hardAlpha" operator="out"/>
<feColorMatrix type="matrix" values="0 0 0 0 0.725 0 0 0 0 0.725 0 0 0 0 0.725 0 0 0 0.25 0"/>
<feBlend mode="normal" in2="BackgroundImageFix" result="effect1_dropShadow_23_154"/>
<feBlend mode="normal" in="SourceGraphic" in2="effect1_dropShadow_23_154" result="shape"/>
</filter>
<linearGradient id="paint0_linear_23_154" x1="87" y1="11" x2="87" y2="37" gradientUnits="userSpaceOnUse">
<stop stop-color="#E6414B"/>
<stop offset="1" stop-color="#B60D00"/>
</linearGradient>
<linearGradient id="paint1_linear_23_154" x1="87" y1="11" x2="87" y2="37" gradientUnits="userSpaceOnUse">
<stop stop-color="#FDC069"/>
<stop offset="1" stop-color="#F59306"/>
</linearGradient>
<linearGradient id="paint2_linear_23_154" x1="11.6479" y1="13.7173" x2="28.5125" y2="30.582" gradientUnits="userSpaceOnUse">
<stop stop-color="#FEF0AE"/>
<stop offset="1" stop-color="#FBC56D"/>
</linearGradient>
<linearGradient id="paint3_linear_23_154" x1="30.763" y1="19.2265" x2="19.5693" y2="21.4652" gradientUnits="userSpaceOnUse">
<stop stop-color="#F6A96C" stop-opacity="0"/>
<stop offset="0.9957" stop-color="#F6A96C" stop-opacity="0.996"/>
<stop offset="1" stop-color="#F6A96C"/>
</linearGradient>
<linearGradient id="paint4_linear_23_154" x1="27.5373" y1="27.7409" x2="17.7616" y2="23.338" gradientUnits="userSpaceOnUse">
<stop stop-color="#F6A96C" stop-opacity="0"/>
<stop offset="0.9957" stop-color="#F6A96C" stop-opacity="0.996"/>
<stop offset="1" stop-color="#F6A96C"/>
</linearGradient>
<linearGradient id="paint5_linear_23_154" x1="15.42" y1="27.4102" x2="24.5241" y2="22.9327" gradientUnits="userSpaceOnUse">
<stop stop-color="#F6A96C" stop-opacity="0"/>
<stop offset="0.9957" stop-color="#F6A96C" stop-opacity="0.996"/>
<stop offset="1" stop-color="#F6A96C"/>
</linearGradient>
<linearGradient id="paint6_linear_23_154" x1="15.0687" y1="30.3689" x2="20.7401" y2="22.0857" gradientUnits="userSpaceOnUse">
<stop stop-color="#F6A96C" stop-opacity="0"/>
<stop offset="0.9957" stop-color="#F6A96C" stop-opacity="0.996"/>
<stop offset="1" stop-color="#F6A96C"/>
</linearGradient>
<linearGradient id="paint7_linear_23_154" x1="24.154" y1="26.4594" x2="23.4704" y2="13.5677" gradientUnits="userSpaceOnUse">
<stop stop-color="#F6A96C" stop-opacity="0"/>
<stop offset="0.9957" stop-color="#F6A96C" stop-opacity="0.996"/>
<stop offset="1" stop-color="#F6A96C"/>
</linearGradient>
<linearGradient id="paint8_linear_23_154" x1="28.3849" y1="30.2254" x2="11.0755" y2="12.916" gradientUnits="userSpaceOnUse">
<stop stop-color="#FEF0AE"/>
<stop offset="1" stop-color="#FBC56D"/>
</linearGradient>
<linearGradient id="paint9_linear_23_154" x1="14.1446" y1="15.8669" x2="26.5383" y2="28.2605" gradientUnits="userSpaceOnUse">
<stop stop-color="#FEF0AE"/>
<stop offset="1" stop-color="#FBC56D"/>
</linearGradient>
<linearGradient id="paint10_linear_23_154" x1="27.6307" y1="25.8325" x2="17.8362" y2="20.7394" gradientUnits="userSpaceOnUse">
<stop stop-color="#DC8758" stop-opacity="0"/>
<stop offset="0.9957" stop-color="#DC8758" stop-opacity="0.996"/>
<stop offset="1" stop-color="#DC8758"/>
</linearGradient>
<linearGradient id="paint11_linear_23_154" x1="18.7595" y1="20.3999" x2="22.3414" y2="21.8923" gradientUnits="userSpaceOnUse">
<stop stop-color="#FBC56D"/>
<stop offset="1" stop-color="#C5715A"/>
</linearGradient>
<linearGradient id="paint12_linear_23_154" x1="20.9998" y1="28.7314" x2="20.9998" y2="43.056" gradientUnits="userSpaceOnUse">
<stop stop-color="#DC8758" stop-opacity="0"/>
<stop offset="0.9957" stop-color="#DC8758" stop-opacity="0.996"/>
<stop offset="1" stop-color="#DC8758"/>
</linearGradient>
</defs>
</svg>
