<?xml version="1.0" encoding="utf-8"?>
<!-- Generator: Adobe Illustrator 21.1.0, SVG Export Plug-In . SVG Version: 6.00 Build 0)  -->
<svg version="1.1" id="Layer_1" xmlns="http://www.w3.org/2000/svg" xmlns:xlink="http://www.w3.org/1999/xlink" x="0px" y="0px"
	 viewBox="0 0 144.7 48.1" style="enable-background:new 0 0 144.7 48.1;" xml:space="preserve">
<style type="text/css">
	.st0{fill:#808066;}
	.st1{fill:#113E85;}
	.st2{fill:#AEAEAE;}
</style>
<g id="XMLID_7_">
	<g>
		<path id="XMLID_17_" class="st1" d="M66.3,31c-0.3,0-0.5,0-0.8-0.1c-0.3-0.1-0.6-0.3-0.9-0.6l-8.3-7.4v7.9h-3.8V19.5
			c0-0.4,0.1-0.8,0.2-1.2c0.1-0.3,0.3-0.6,0.5-0.8c0.2-0.2,0.5-0.4,0.7-0.4c0.3-0.1,0.6-0.1,0.9-0.1c0.3,0,0.5,0,0.8,0.1
			c0.3,0.1,0.6,0.3,0.9,0.6l8.3,7.4v-7.9h3.8v11.2c0,0.4-0.1,0.8-0.2,1.2c-0.1,0.3-0.3,0.6-0.5,0.8c-0.2,0.2-0.5,0.4-0.7,0.5
			C66.8,30.9,66.6,31,66.3,31z"/>
		<path id="XMLID_15_" class="st1" d="M84.5,27.3c-0.2-0.2-0.4-0.5-0.7-0.9c-0.2-0.4-0.5-0.7-0.7-1l-2.4-3.6l-6.3,9h-5l8.7-12.2
			c0.3-0.4,0.6-0.7,1.1-1.1c0.4-0.3,1-0.5,1.6-0.5c0.6,0,1.2,0.1,1.6,0.4c0.4,0.3,0.8,0.7,1.1,1.1l8.5,12.2H76.2l2.5-3.5L84.5,27.3"
			/>
		<path id="XMLID_13_" class="st1" d="M93,17.2l6.1,9l6.3-9h4.9l-8.7,12.2c-0.3,0.4-0.7,0.7-1.1,1.1c-0.4,0.3-1,0.5-1.6,0.5
			c-0.6,0-1.2-0.1-1.6-0.4c-0.4-0.3-0.8-0.7-1.1-1.1l-8.5-12.2H93z"/>
		<path id="XMLID_11_" class="st1" d="M127.6,27.3l-2.7,3.5h-13V17.2h15.7l-2.7,3.5h-8.8v1.6h10.7l-2.4,3.1h-8.3v1.8H127.6z"/>
		<path id="XMLID_9_" class="st1" d="M144.7,27.3l-2.7,3.5h-13V17.2h15.7l-2.7,3.5h-8.8v1.6h10.7l-2.4,3.1h-8.3v1.8H144.7z"/>
	</g>
</g>
<path id="XMLID_6_" class="st2" d="M3.5,31.2c-0.5-1.7-0.7-3.5-0.7-5.3C2.8,16.7,9,9,17.5,6.8l1.7-2.9c-4.7,0.7-9,2.9-12.4,6.3
	C2.6,14.4,0.3,20,0.3,25.9c0,2.9,0.5,5.6,1.6,8.2L3.5,31.2z"/>
<path id="XMLID_5_" class="st2" d="M42.2,25.9c0,1.8-0.2,3.6-0.7,5.2l1.7,2.9c1-2.6,1.5-5.3,1.5-8.2c0-5.9-2.3-11.5-6.5-15.7
	c-3.4-3.4-7.7-5.6-12.4-6.3l1.6,2.9C35.9,9,42.2,16.7,42.2,25.9z"/>
<path id="XMLID_4_" class="st2" d="M22.5,45.6c-5.3,0-10.1-2.1-13.7-5.5h-3H5.6H5.4c0.4,0.5,0.9,1,1.4,1.5c4.2,4.2,9.8,6.5,15.7,6.5
	s11.5-2.3,15.7-6.5c0.5-0.5,1-1,1.4-1.5h-3.4C32.6,43.5,27.8,45.6,22.5,45.6z"/>
<polygon id="XMLID_3_" class="st1" points="23.7,10.8 7.4,39.1 19.6,39.1 32.3,17.1 29.8,12.8 17,35.2 14.7,35.2 28.6,10.8 22.5,0 
	0,39.1 5.1,39.1 22.5,8.5 "/>
<polygon id="XMLID_2_" class="st2" points="36,23.5 33.1,18.5 21.6,39.1 26.9,39.1 29.6,39.1 44.9,39.1 37.2,25.7 "/>
</svg>
