<svg width="51" height="52" viewBox="0 0 51 52" fill="none" xmlns="http://www.w3.org/2000/svg">
<path d="M50.5611 26.5838C50.5611 24.7618 50.4063 23.007 50.1114 21.3281H25.8887V31.2555H39.7198C39.1242 34.4673 37.3226 37.2031 34.5926 39.0339V45.4925H42.9141C47.7697 41.0193 50.5611 34.403 50.5611 26.5838Z" fill="white"/>
<path d="M34.5956 39.034C32.2976 40.5756 29.3428 41.475 25.8887 41.475C19.2023 41.475 13.5291 36.9638 11.5027 30.8848L2.92725 37.539C7.15517 45.9364 15.8474 51.6943 25.8887 51.6943C32.8232 51.6943 38.6629 49.4168 42.917 45.4926L34.5956 39.034Z" fill="white"/>
<path d="M10.7057 26C10.7057 24.3007 10.9889 22.6568 11.5028 21.1152L2.92728 14.458C1.18124 17.9296 0.194336 21.8481 0.194336 26C0.194336 30.152 1.18124 34.0704 2.92728 37.5421L11.5028 30.8878C10.9889 29.3432 10.7057 27.6994 10.7057 26Z" fill="white"/>
<path d="M25.8887 10.525C29.664 10.525 33.048 11.8243 35.7168 14.3675L43.0806 7.0037C38.6278 2.85174 32.8203 0.305664 25.8887 0.305664C15.8474 0.305664 7.15517 6.06357 2.92725 14.458L11.5027 21.1122C13.5291 15.0361 19.2023 10.525 25.8887 10.525Z" fill="white"/>
</svg>
